<?xml version="1.0" encoding="utf-8"?>
<svg xmlns="http://www.w3.org/2000/svg" version="1.0" width="500.000000pt" height="500.000000pt" viewBox="0 0 500.000000 500.000000">
	<g transform="translate(0.000000,500.000000) scale(0.100000,-0.100000)" fill="currentColor" stroke="none">
		<path d="M2868 4760 c-238 -68 -645 -312 -995 -596 l-32 -26 -543 76 c-850 118 -995 137 -1118 143 -147 6 -156 2 -153 -89 1 -34 45 -337 97 -673 181 -1154 177 -1132 246 -1168 38 -20 21 -20 545 0 l170 6 0 -234 c1 -258 14 -379 64 -585 112 -454 338 -800 686 -1049 469 -335 1026 -439 1502 -280 438 146 738 463 824 870 21 96 16 285 -9 387 -85 347 -331 548 -666 548 -122 0 -203 -18 -298 -66 -222 -112 -324 -382 -225 -598 50 -109 143 -176 244 -176 88 0 133 34 133 100 0 24 -9 40 -40 67 -79 71 -89 165 -25 222 42 37 72 46 145 45 100 -1 191 -72 227 -178 25 -73 22 -195 -6 -268 -48 -125 -154 -227 -289 -279 -72 -27 -229 -37 -310 -19 -79 17 -189 71 -256 125 -221 180 -303 553 -195 880 45 135 108 234 224 351 214 216 349 246 1375 303 347 20 385 26 423 68 23 26 369 918 371 957 1 20 -7 34 -25 48 -29 22 -19 21 -888 142 -480 68 -536 78 -558 98 -35 33 -119 204 -243 498 -62 146 -124 280 -137 299 -52 69 -141 86 -265 51z" />
	</g>
</svg>
