<?xml version="1.0" encoding="utf-8"?>
<!-- Generator: Adobe Illustrator 21.1.0, SVG Export Plug-In . SVG Version: 6.00 Build 0)  -->
<svg version="1.1" id="Layer_1" xmlns="http://www.w3.org/2000/svg" xmlns:xlink="http://www.w3.org/1999/xlink" x="0px" y="0px" viewBox="0 0 400 108.8" style="enable-background:new 0 0 400 108.8;" xml:space="preserve">
	<g fill="white">
		<g>
			<path d="M120.5,77.4V34.4c0-1.7,1.3-3,3-3h17.2c22,0.1,22,34.2,0,34.2h-8.5v11.7H120.5z M140.7,41.9c-2.8-0.1-5.7,0-8.4,0
			c0,3.7,0,9.4,0,13.1h8.4C147.1,55.1,147.5,42,140.7,41.9z" />
			<path d="M200.3,75.6v1.7h-13.1l-7.9-13.5h-6.1v13.5h-11.7V34.4c0-1.7,1.3-3,3-3h17.1c18,0.1,21.3,21.8,9.7,29.6L200.3,75.6z
			 M181.6,41.9c-2.8-0.1-5.6,0-8.4,0c0,3.7,0,7.7,0,11.3h8.4C188,53.3,188.3,42,181.6,41.9z" />
			<path d="M232.3,41.9h-17v6.5H231v10.4h-15.6v8.1h17.6v10.4h-29.2V34.4c0-1.7,1.3-3,3-3h25.7V41.9z" />
			<path d="M288,66.9l15.9-31.1c1-2-0.4-4.3-2.7-4.3H240c-1.7,0-3,1.3-3,3v7.5h11.3v35.4h11.6V41.9h27.7l-18,35.4h36.7V66.9H288z" />
			<path d="M340.4,41.9h-17v6.5H339v10.4h-15.6v8.1H341v10.4h-29.2V34.4c0-1.7,1.3-3,3-3h25.7V41.9z" />
			<path d="M358.3,66.8H375c0,3.9,0,6.6,0,10.6c-9.4,0-19.1,0-28.5,0V31.4c3.9,0,7.8,0,11.8,0C358.3,55.2,358.3,47.3,358.3,66.8z" />
		</g>
		<path d="M97,13.8l-39.5,22c-0.3,0.2-0.5,0.5-0.5,0.8V55l9.2,5.8V42c0-0.3,0.2-0.6,0.5-0.8l21.1-11.8c0.6-0.3,1.4,0.1,1.4,0.8v19.3
		c0,0,0,0,0,0v15.7h0c0.2,4.3-2.5,8.3-6.8,9.6c-2.6,0.8-5.4,0.4-7.7-1L53.6,60.4l-0.1-0.1c-4.8-2.9-10.6-3.5-15.9-1.7
		c-4.5,1.6-8.3,4.8-10.5,9.1c-2.2,4.3-2.7,9.2-1.4,13.8c1.4,4.9,4.6,8.9,9,11.3c2.8,1.5,5.9,2.3,9,2.3c1.8,0,3.6-0.3,5.4-0.8
		c5.1-1.5,9.3-5.1,11.6-9.9l0.3-0.8l-7.8-5l-0.8,1.9c-1.2,2.4-3.3,4.3-5.9,5c-2.5,0.7-5.1,0.5-7.4-0.8c-2.3-1.2-3.9-3.3-4.6-5.8
		c-1.4-4.8,1.4-10,6.1-11.7c1-0.4,2.1-0.5,3.1-0.5c1.7,0,3.4,0.5,4.9,1.4l21.1,13.5l0.1,0c3,1.8,6.3,2.7,9.8,2.7
		c1.8,0,3.6-0.3,5.4-0.8c8.3-2.5,13.5-10.1,13.4-18.4h0V14.6C98.3,13.9,97.6,13.5,97,13.8z" />
	</g>
</svg>