<svg id="Layer_1" data-name="Layer 1" xmlns="http://www.w3.org/2000/svg" viewBox="0 0 558.43 167.49">
    <defs>
        <style>.cls-1{fill:#fff;}</style>
    </defs>
    <path class="cls-1" d="M88,1.28A83.74,83.74,0,1,0,171.74,85,83.75,83.75,0,0,0,88,1.28Zm38.4,120.78a5.22,5.22,0,0,1-7.18,1.74c-19.66-12-44.41-14.73-73.56-8.07a5.22,5.22,0,0,1-2.33-10.18c31.9-7.29,59.27-4.15,81.34,9.34A5.21,5.21,0,0,1,126.4,122.06Zm10.25-22.8a6.53,6.53,0,0,1-9,2.15c-22.51-13.83-56.82-17.84-83.45-9.76a6.53,6.53,0,1,1-3.79-12.49c30.41-9.23,68.22-4.76,94.07,11.12A6.53,6.53,0,0,1,136.65,99.26Zm.88-23.74c-27-16-71.52-17.51-97.29-9.69a7.83,7.83,0,0,1-4.54-15c29.58-9,78.75-7.24,109.83,11.21a7.83,7.83,0,0,1-8,13.47Z" transform="translate(-4.25 -1.28)" />
    <path class="cls-1" d="M232.09,78.59c-14.46-3.45-17-5.87-17-11,0-4.8,4.52-8,11.24-8,6.52,0,13,2.45,19.77,7.51a1,1,0,0,0,1.34-.22l7.06-10a1,1,0,0,0-.18-1.29A42.74,42.74,0,0,0,226.52,46C210.91,46,200,55.4,200,68.81c0,14.37,9.41,19.46,25.66,23.39,13.84,3.19,16.18,5.86,16.18,10.63,0,5.29-4.73,8.58-12.32,8.58-8.44,0-15.33-2.84-23-9.51a1,1,0,0,0-.69-.23.91.91,0,0,0-.65.34l-7.92,9.42a.94.94,0,0,0,.09,1.31A47.19,47.19,0,0,0,229.2,125c16.82,0,27.69-9.19,27.69-23.42C256.89,89.52,249.71,82.87,232.09,78.59Z" transform="translate(-4.25 -1.28)" />
    <path class="cls-1" d="M295,64.33c-7.29,0-13.27,2.87-18.21,8.75V66.46a1,1,0,0,0-.94-.95H262.85a1,1,0,0,0-.94.95v73.6a1,1,0,0,0,.94.95H275.8a1,1,0,0,0,.94-.95V116.83A23.29,23.29,0,0,0,295,125.07c13.55,0,27.27-10.43,27.27-30.37S308.5,64.33,295,64.33ZM307.16,94.7c0,10.15-6.25,17.24-15.21,17.24s-15.53-7.41-15.53-17.24S283.1,77.46,292,77.46,307.16,84.71,307.16,94.7Z" transform="translate(-4.25 -1.28)" />
    <path class="cls-1" d="M357.37,64.33c-17.45,0-31.12,13.43-31.12,30.59,0,17,13.58,30.26,30.91,30.26,17.51,0,31.22-13.39,31.22-30.48S374.76,64.33,357.37,64.33Zm0,47.72c-9.28,0-16.28-7.46-16.28-17.35s6.76-17.13,16.07-17.13S373.54,85,373.54,94.92,366.74,112.05,357.37,112.05Z" transform="translate(-4.25 -1.28)" />
    <path class="cls-1" d="M425.64,65.51H411.4V50.94a1,1,0,0,0-.95-.94H397.51a.94.94,0,0,0-.95.94V65.51h-6.23a1,1,0,0,0-.94.95V77.59a.94.94,0,0,0,.94.94h6.23v28.8c0,11.63,5.79,17.53,17.21,17.53a23.62,23.62,0,0,0,12.13-3,1,1,0,0,0,.48-.82V110.43a1,1,0,0,0-.45-.81.94.94,0,0,0-.93,0,16.35,16.35,0,0,1-7.6,1.83c-4.15,0-6-1.89-6-6.11V78.53h14.24a.94.94,0,0,0,.95-.94V66.46A1,1,0,0,0,425.64,65.51Z" transform="translate(-4.25 -1.28)" />
    <path class="cls-1" d="M475.28,65.57V63.78c0-5.27,2-7.61,6.55-7.61a21.86,21.86,0,0,1,7.29,1.34.92.92,0,0,0,.85-.13.94.94,0,0,0,.4-.77V45.7a1,1,0,0,0-.67-.91,35.73,35.73,0,0,0-10.77-1.54c-11.95,0-18.27,6.73-18.27,19.46v2.74h-6.22a1,1,0,0,0-.95,1V77.59a.94.94,0,0,0,.95.94h6.22v44.41a.94.94,0,0,0,.94,1h12.95a1,1,0,0,0,.95-1V78.53h12.08l18.52,44.4c-2.1,4.67-4.17,5.6-7,5.6a15,15,0,0,1-7.14-2,.93.93,0,0,0-1.31.44l-4.39,9.63a.93.93,0,0,0,.41,1.22,27.25,27.25,0,0,0,13.82,3.54c9.56,0,14.85-4.45,19.5-16.43l22.47-58a1,1,0,0,0-.1-.88,1,1,0,0,0-.78-.41H528.11a1,1,0,0,0-.9.63l-13.8,39.44L498.28,66.18a.94.94,0,0,0-.88-.61Z" transform="translate(-4.25 -1.28)" />
    <rect class="cls-1" x="428.36" y="64.23" width="14.84" height="58.38" rx="0.95" />
    <path class="cls-1" d="M440.1,39.79a9.29,9.29,0,1,0,9.28,9.28A9.28,9.28,0,0,0,440.1,39.79Z" transform="translate(-4.25 -1.28)" />
    <path class="cls-1" d="M553.52,83.67a9.14,9.14,0,1,1,9.16-9.16A9.16,9.16,0,0,1,553.52,83.67Zm.05-17.36a8.23,8.23,0,1,0,8.15,8.2A8.15,8.15,0,0,0,553.57,66.31Zm2,9.13,2.57,3.61H556l-2.32-3.31h-2v3.31h-1.82V69.49h4.26c2.22,0,3.69,1.14,3.69,3.05A2.85,2.85,0,0,1,555.59,75.44Zm-1.54-4.31h-2.37v3h2.37c1.18,0,1.89-.58,1.89-1.51S555.23,71.13,554.05,71.13Z" transform="translate(-4.25 -1.28)" />
</svg>