<?xml version="1.0" encoding="UTF-8" standalone="no"?>
<!-- Generator: Adobe Illustrator 23.0.2, SVG Export Plug-In . SVG Version: 6.00 Build 0)  -->

<svg
   version="1.1"
   id="Layer_1"
   x="0px"
   y="0px"
   viewBox="0 0 1504 460"
   style="enable-background:new 0 0 1504 460;"
   xml:space="preserve"
   sodipodi:docname="wordmark_white.svg"
   inkscape:version="1.2.1 (9c6d41e410, 2022-07-14)"
   xmlns:inkscape="http://www.inkscape.org/namespaces/inkscape"
   xmlns:sodipodi="http://sodipodi.sourceforge.net/DTD/sodipodi-0.dtd"
   xmlns="http://www.w3.org/2000/svg"
   xmlns:svg="http://www.w3.org/2000/svg"><defs
   id="defs35" /><sodipodi:namedview
   id="namedview33"
   pagecolor="#ffffff"
   bordercolor="#666666"
   borderopacity="1.0"
   inkscape:pageshadow="2"
   inkscape:pageopacity="0.0"
   inkscape:pagecheckerboard="0"
   showgrid="false"
   inkscape:zoom="0.73271275"
   inkscape:cx="526.12705"
   inkscape:cy="256.58077"
   inkscape:window-width="1680"
   inkscape:window-height="979"
   inkscape:window-x="-8"
   inkscape:window-y="-8"
   inkscape:window-maximized="1"
   inkscape:current-layer="layer2"
   inkscape:showpageshadow="2"
   inkscape:deskcolor="#d1d1d1" />
<style
   type="text/css"
   id="style2">
	.st0{fill:#E04949;}
</style>
<g
   inkscape:groupmode="layer"
   id="layer2"
   inkscape:label="Letters"><g
     aria-label="sterlabs"
     id="text1630"
     style="font-size:380px;font-family:'Reenie Beanie';-inkscape-font-specification:'Reenie Beanie';stroke:#000000;fill:#ffffff"><path
       style="color:#000000;-inkscape-font-specification:'Reenie Beanie';fill:#ffffff;stroke:none;-inkscape-stroke:none"
       d="m 567.22045,288.54074 q 0,6.46 -4.56,11.4 -4.18,4.56 -11.02,7.98 -6.46,3.04 -14.44,4.94 -7.98,1.9 -15.2,3.04 -7.22,0.76 -12.92,1.14 -5.32,0 -6.84,0 -8.36,0 -12.92,-2.66 -4.56,-2.66 -4.56,-9.5 0,-2.28 0.38,-3.8 0.38,-1.9 3.04,-1.9 1.14,0 3.8,0.76 2.66,0.38 4.18,0.38 1.52,0 9.5,-0.38 8.36,-0.76 17.48,-2.28 9.5,-1.52 16.72,-4.18 7.6,-3.04 7.6,-7.6 0,-0.76 -7.98,-4.56 -7.6,-4.18 -23.18,-13.68 -12.16,-7.6 -17.1,-15.2 -4.94,-7.98 -4.94,-21.28 0,-8.36 3.42,-13.68 3.8,-5.32 9.88,-8.36 6.46,-3.04 14.44,-4.18 8.36,-1.52 17.48,-1.52 0.76,0 4.56,0.76 4.18,0.76 8.74,2.66 4.56,1.52 7.98,4.18 3.8,2.28 3.8,5.32 0,0.76 -1.52,2.28 -1.14,1.52 -4.18,5.7 -1.14,-0.38 -4.18,-1.14 -2.66,-0.76 -6.46,-1.52 -3.42,-1.14 -7.22,-1.52 -3.8,-0.76 -6.08,-0.76 -9.88,0 -15.96,3.8 -6.08,3.42 -6.08,13.68 0,4.94 3.8,9.12 4.18,4.18 10.26,7.98 6.08,3.42 12.92,7.22 7.22,3.42 13.3,7.6 6.08,4.18 9.88,9.12 4.18,4.56 4.18,10.64 z"
       id="path1701" /><path
       style="color:#000000;-inkscape-font-specification:'Reenie Beanie';fill:#ffffff;stroke:none;-inkscape-stroke:none"
       d="m 700.60076,166.94074 q -4.94,5.7 -14.06,11.4 -9.12,5.32 -18.24,9.88 -9.12,4.56 -15.96,7.98 -6.84,3.04 -6.84,4.18 0,1.14 1.52,6.84 1.52,5.7 3.42,13.68 2.28,7.6 4.56,15.96 2.28,8.36 3.8,14.82 0.76,3.8 1.9,9.88 1.14,6.08 1.9,12.16 1.14,6.08 1.9,11.02 0.76,4.56 0.76,4.94 0,5.7 -1.9,11.78 -1.9,6.08 -6.08,6.08 -2.28,0 -4.18,-1.9 -1.9,-1.9 -3.42,-4.18 -1.52,-2.66 -2.28,-4.94 -0.76,-2.28 -0.76,-3.42 0,-0.76 0,-2.28 0.38,-1.52 0.38,-3.42 0,-7.22 -2.28,-20.9 -0.76,-4.18 -3.04,-12.92 -2.28,-8.74 -4.56,-17.86 -2.66,-10.64 -6.08,-23.18 -1.52,-5.32 -1.9,-5.32 -2.66,0 -9.12,3.42 -6.08,3.04 -14.06,7.98 -7.98,4.56 -16.72,10.26 -8.74,5.32 -16.34,10.26 -7.6,4.56 -12.92,7.98 -5.7,3.04 -6.84,3.04 -4.94,0 -7.98,-3.42 -3.04,-3.42 -3.04,-7.6 0,-2.28 6.46,-6.46 6.08,-4.56 15.58,-9.88 9.12,-5.32 20.14,-11.02 10.64,-5.7 19.76,-10.26 9.5,-4.56 15.58,-7.6 6.46,-3.04 6.46,-3.04 -3.42,-17.48 -5.7,-31.16 -1.9,-11.78 -3.8,-21.66 -1.52,-9.88 -1.52,-10.64 0,-4.94 1.9,-7.22 2.28,-2.66 4.94,-2.66 4.18,0 5.32,5.7 4.18,20.52 7.6,36.48 3.8,15.96 7.22,25.84 3.42,-0.76 11.78,-4.18 8.36,-3.8 17.48,-7.98 9.12,-4.18 16.34,-7.22 7.6,-3.42 8.74,-3.42 2.28,0 2.66,1.52 0.76,1.52 1.52,2.66 z"
       id="path1707" /><path
       style="color:#000000;-inkscape-font-specification:'Reenie Beanie';fill:#ffffff;stroke:none;-inkscape-stroke:none"
       d="m 826.76085,298.80074 q 0.38,0.76 0.38,2.28 0,2.28 -3.42,6.84 -1.14,1.52 -4.94,4.94 -3.8,3.42 -10.26,6.84 -6.46,3.42 -15.96,6.08 -9.12,2.66 -21.66,2.66 -8.74,0 -17.1,-3.8 -8.36,-4.18 -14.82,-11.78 -6.46,-7.98 -10.64,-19.38 -4.18,-11.78 -4.18,-27.36 0,-14.82 3.8,-27.74 3.8,-12.92 9.5,-22.8 6.08,-9.88 13.3,-15.58 7.22,-5.7 14.06,-5.7 6.08,0 12.16,2.66 6.46,2.28 11.4,6.08 5.32,3.8 8.36,8.74 3.04,4.56 3.04,9.5 0,5.7 -5.32,11.78 -4.94,6.08 -12.16,11.4 -7.22,4.94 -14.44,8.36 -7.22,3.04 -11.4,3.04 -2.28,0 -4.18,-1.9 -1.52,-2.28 -1.52,-5.32 0,-5.32 4.56,-8.36 4.94,-3.04 10.64,-5.32 5.7,-2.66 10.26,-6.08 4.94,-3.42 4.94,-9.5 0,-0.76 -1.9,-3.8 -1.9,-3.04 -10.26,-3.04 -3.8,0 -8.74,4.56 -4.94,4.18 -9.5,11.78 -4.56,7.22 -7.6,17.48 -3.04,9.88 -3.04,21.66 0,9.88 3.42,17.86 3.8,7.98 9.5,13.68 5.7,5.32 13.3,8.36 7.6,3.04 15.58,3.04 5.7,0 12.16,-2.28 6.84,-2.66 12.54,-5.32 6.08,-3.04 10.26,-5.32 4.56,-2.66 5.7,-2.66 1.14,0 2.28,1.14 1.52,1.14 1.9,2.28 z"
       id="path1713" /><path
       style="color:#000000;-inkscape-font-specification:'Reenie Beanie';fill:#ffffff;stroke:none;-inkscape-stroke:none"
       d="m 943.4212,222.80074 q 0,2.66 -2.28,4.56 -2.28,1.52 -5.32,2.66 -3.04,1.14 -6.08,1.9 -3.04,0.38 -4.94,0.38 -5.7,0 -7.6,-0.76 -1.9,-0.76 -3.04,-0.76 -9.5,0 -15.2,1.52 -5.7,1.52 -9.12,4.94 -3.04,3.42 -4.18,8.74 -0.76,4.94 -0.76,12.16 0,12.16 0.76,19.38 1.14,7.22 1.9,11.78 1.14,4.56 1.9,7.22 1.14,2.28 1.14,4.56 0,3.04 -3.42,6.46 -3.04,3.42 -5.7,3.42 -4.56,0 -8.36,-7.98 -3.42,-8.36 -6.08,-19.38 -2.28,-11.4 -3.8,-22.42 -1.52,-11.02 -1.52,-16.72 0,-6.46 1.14,-12.16 1.14,-6.08 3.04,-10.26 1.9,-4.56 4.18,-7.22 2.28,-2.66 4.56,-2.66 1.9,0 3.04,1.52 1.14,1.14 1.9,3.04 0.76,1.52 1.52,3.04 1.14,1.14 2.66,1.14 3.42,0 11.02,-3.42 7.6,-3.42 18.62,-3.42 10.26,0 15.2,0.76 5.32,0.38 10.26,2.28 1.14,0.38 2.66,1.9 1.9,1.14 1.9,3.8 z"
       id="path1719" /><path
       style="color:#000000;-inkscape-font-specification:'Reenie Beanie';fill:#ffffff;stroke:none;-inkscape-stroke:none"
       d="m 1024.3612,327.68074 q 0,3.04 -2.28,4.56 -2.28,1.52 -5.32,1.52 -3.42,0 -7.22,-6.46 -3.42,-6.46 -6.84,-16.34 -3.41998,-9.88 -6.45998,-21.28 -3.04,-11.78 -5.32,-21.66 -2.28,-10.26 -3.8,-17.1 -1.14,-6.84 -1.14,-7.6 0,-1.52 -1.52,-7.98 -1.14,-6.46 -3.42,-20.14 -1.9,-13.68 -4.56,-35.34 -2.28,-22.04 -4.94,-54.34 0,-3.42 1.14,-8.74 1.14,-5.32 5.32,-5.32 5.32,0 7.98,7.22 3.04,7.22 4.56,17.86 1.9,10.64 2.66,22.42 0.76,11.4 1.9,20.14 1.52,12.16 2.66,22.04 1.52,9.88 2.65998,19.76 1.52,9.5 3.42,20.14 2.28,10.64 5.32,23.56 z"
       id="path1725" /><path
       style="color:#000000;-inkscape-font-specification:'Reenie Beanie';fill:#ffffff;stroke:none;-inkscape-stroke:none"
       d="m 1234.5014,259.66074 q 0,6.84 -6.46,17.1 -6.08,9.88 -16.72,19.38 -10.64,9.5 -24.7,16.34 -14.06,6.46 -29.26,6.46 -6.84,0 -14.44,-2.28 -7.6,-2.28 -14.82,-6.46 -7.22,-4.56 -12.92,-10.64 -5.7,-6.46 -8.36,-14.44 -2.28,2.28 -5.7,7.6 -3.04,5.32 -6.84,11.02 -3.8,5.32 -8.36,9.5 -4.56,3.8 -9.5,3.8 -4.94,0 -8.36,-4.94 -3.04,-5.32 -4.94,-11.4 -1.9,-6.46 -2.66,-12.16 -0.76,-5.7 -0.76,-6.46 0,-4.56 2.66,-17.1 2.66,-12.92 7.98,-26.6 5.32,-13.68 13.3,-24.32 8.36,-10.64 19.38,-10.64 4.18,0 5.32,3.8 1.52,3.42 1.52,6.84 v 11.4 q 1.9,1.52 3.8,2.28 2.28,0.38 3.8,1.52 1.9,0.76 2.66,2.66 1.14,1.9 1.14,6.08 0,2.66 -0.38,4.94 -0.38,1.9 -0.38,3.8 0,9.88 1.52,19.38 1.52,9.5 6.08,17.1 4.56,7.22 12.54,12.16 7.98,4.56 21.28,4.56 16.72,0 28.12,-6.84 11.78,-7.22 19.38,-15.58 7.98,-8.74 12.54,-15.58 4.56,-7.22 7.6,-7.22 4.94,0 4.94,4.94 z m -133.38,-16.72 q 0,-1.52 -0.76,-2.66 -0.76,-1.52 -0.76,-2.66 0,-1.52 0.76,-2.66 0.76,-1.14 0.76,-3.04 0,-1.14 -0.76,-1.52 -0.76,-0.76 -0.76,-1.52 -3.42,0.76 -7.22,6.46 -3.42,5.7 -6.84,13.3 -3.04,7.6 -4.94,15.58 -1.9,7.6 -1.9,12.54 0,2.66 1.52,8.74 1.52,6.08 3.42,7.98 6.46,-13.3 11.78,-25.84 5.7,-12.54 5.7,-24.7 z"
       id="path1731" /><path
       style="color:#000000;-inkscape-font-specification:'Reenie Beanie';fill:#ffffff;stroke:none;-inkscape-stroke:none"
       d="m 1329.5012,263.08074 q 0,17.1 -4.18,30.02 -3.8,12.92 -9.5,21.66 -5.7,8.36 -11.78,12.54 -5.7,4.18 -9.5,4.18 -5.32,0 -10.26,-4.56 -4.94,-4.94 -4.94,-9.12 0,-6.08 4.94,-6.08 1.9,0 3.8,1.52 1.9,1.14 3.42,1.9 6.46,-5.32 12.16,-17.48 6.08,-12.16 6.08,-34.58 0,-9.12 -1.9,-16.34 -1.9,-7.22 -4.56,-12.16 -2.28,-4.94 -4.94,-7.6 -2.66,-2.66 -3.8,-2.66 -3.8,0 -7.6,7.6 -3.42,7.6 -6.08,17.48 -2.66,9.5 -4.56,19 -1.52,9.12 -1.52,12.54 0.38,2.28 0.76,4.18 0.38,1.9 0.76,3.8 0.38,1.9 0.38,3.8 0,7.22 -4.94,12.92 -4.94,5.7 -9.5,5.7 -2.28,0 -3.8,-3.04 -1.14,-3.42 -1.9,-8.36 -0.76,-4.94 -1.52,-10.26 -0.38,-5.32 -1.14,-9.5 -3.04,-6.84 -7.98,-21.66 -4.94,-14.82 -10.64,-31.54 -5.32,-17.1 -10.26,-33.06 -4.56,-15.96 -6.84,-25.46 -5.32,-20.52 -7.98,-35.72 -3.04,-15.58 -4.56,-26.98 -1.9,-11.779995 -2.28,-20.139995 -0.38,-8.36 -0.38,-14.06 0,-3.42 3.04,-5.32 2.66,-1.9 4.94,-1.9 3.42,0 4.94,1.52 1.52,1.14 2.28,5.32 0.38,4.18 1.14,12.16 0.38,7.98 1.9,21.279995 0.76,6.46 2.66,17.86 2.28,11.4 5.7,25.46 3.42,14.06 7.22,29.64 4.18,15.2 8.36,29.26 4.56,14.06 8.74,25.84 4.56,11.78 8.36,18.62 3.42,-13.68 8.36,-24.7 4.18,-9.12 10.26,-16.72 6.08,-7.98 14.82,-7.98 3.42,0 9.12,3.04 5.7,3.04 11.02,10.26 5.7,7.22 9.5,19 4.18,11.78 4.18,28.88 z"
       id="path1737" /><path
       style="color:#000000;-inkscape-font-specification:'Reenie Beanie';fill:#ffffff;stroke:none;-inkscape-stroke:none"
       d="m 1450.3409,288.54074 q 0,6.46 -4.56,11.4 -4.18,4.56 -11.02,7.98 -6.46,3.04 -14.44,4.94 -7.98,1.9 -15.2,3.04 -7.22,0.76 -12.92,1.14 -5.32,0 -6.84,0 -8.36,0 -12.92,-2.66 -4.56,-2.66 -4.56,-9.5 0,-2.28 0.38,-3.8 0.38,-1.9 3.04,-1.9 1.14,0 3.8,0.76 2.66,0.38 4.18,0.38 1.52,0 9.5,-0.38 8.36,-0.76 17.48,-2.28 9.5,-1.52 16.72,-4.18 7.6,-3.04 7.6,-7.6 0,-0.76 -7.98,-4.56 -7.6,-4.18 -23.18,-13.68 -12.16,-7.6 -17.1,-15.2 -4.94,-7.98 -4.94,-21.28 0,-8.36 3.42,-13.68 3.8,-5.32 9.88,-8.36 6.46,-3.04 14.44,-4.18 8.36,-1.52 17.48,-1.52 0.76,0 4.56,0.76 4.18,0.76 8.74,2.66 4.56,1.52 7.98,4.18 3.8,2.28 3.8,5.32 0,0.76 -1.52,2.28 -1.14,1.52 -4.18,5.7 -1.14,-0.38 -4.18,-1.14 -2.66,-0.76 -6.46,-1.52 -3.42,-1.14 -7.22,-1.52 -3.8,-0.76 -6.08,-0.76 -9.88,0 -15.96,3.8 -6.08,3.42 -6.08,13.68 0,4.94 3.8,9.12 4.18,4.18 10.26,7.98 6.08,3.42 12.92,7.22 7.22,3.42 13.3,7.6 6.08,4.18 9.88,9.12 4.18,4.56 4.18,10.64 z"
       id="path1743" /></g></g>

<g
   inkscape:groupmode="layer"
   id="layer1"
   inkscape:label="Dot"
   style="display:inline"><path
     class="st0"
     d="m 238.48142,15.76444 c 6.11884,-0.889269 12.31774,-0.778922 18.48634,-0.770268 21.62365,-0.460862 43.25812,2.968562 63.93409,9.238893 39.35056,12.008403 74.95148,35.785036 101.3049,67.37038 31.13296,37.005345 49.26879,84.917785 49.6972,133.321375 1.75905,59.62225 -23.545,119.20339 -67.12335,159.83722 -37.17174,35.36528 -87.51803,56.55199 -138.80551,58.12282 -8.93809,-0.0909 -17.90648,0.41975 -26.80347,-0.6491 -27.66244,-2.33028 -54.84671,-10.21904 -79.49949,-23.00637 C 126.79959,402.26185 98.496708,376.56604 78.352994,345.53893 59.325741,316.3531 47.579207,282.42883 44.699372,247.69317 43.600232,238.48457 44.119513,229.18509 44.050273,219.92673 45.400398,185.481 55.31647,151.39662 72.662564,121.60064 92.507685,87.334512 122.05035,58.758846 156.98053,40.092812 182.13529,26.623929 210.04006,18.163957 238.48142,15.76444"
     id="path4-3"
     inkscape:label="path4"
     sodipodi:nodetypes="ccccccccccccccc"
     style="fill:#e04949;stroke-width:0.216367" /><g
     aria-label="Ca"
     id="text1267"
     style="font-size:1400px;font-family:'Reenie Beanie';-inkscape-font-specification:'Reenie Beanie';stroke:#a0a0a0;stroke-opacity:0.997947;fill:#ffffff"
     transform="matrix(0.21636636,0,0,0.21636758,41.841174,12.575183)"><g
       id="path1324"
       style="fill:#ffffff"><path
         style="color:#000000;-inkscape-font-specification:'Reenie Beanie';fill:#ffffff;stroke:none;stroke-opacity:1;-inkscape-stroke:none"
         d="m 906.84387,1010.0774 q 0,19.6 -11.2,40.6 -9.8,21 -25.2,42 -15.4,21 -33.6,40.6 -18.2,18.2 -33.6,32.2 -37.8,33.6 -78.4,64.4 -39.2,29.4 -82.6,53.2 -42,23.8 -88.2,37.8 -46.2,14 -96.6,14 -152.6,0 -152.6,-156.8 0,-15.4 12.6,-60.2 12.6,-44.8 32.2,-102.2 19.6,-57.40003 46.2,-120.40003 26.6,-63 54.6,-114.8 28,-53.2 54.6,-86.8 28,-33.6 51.8,-33.6 15.4,0 22.4,9.8 8.4,9.8 8.4,21 -1.4,8.4 -19.6,36.4 -18.2,26.6 -37.8,54.6 -2.8,4.2 -9.8,14 -7,9.8 -14,19.6 -8.4,11.2 -16.8,23.8 -5.6,9.8 -25.2,50.4 -18.2,39.2 -39.2,92.4 -21,51.80003 -37.8,109.20003 -16.8,56 -16.8,98 0,23.8 9.8,37.8 11.2,14 25.2,21 15.4,7 30.8,9.8 16.8,1.4 29.4,1.4 51.8,0 109.2,-22.4 58.8,-23.8 112,-61.6 53.2,-37.8 98,-86.8 44.8,-50.4 70,-103.60003 5.6,-9.8 11.2,-12.6 7,-2.8 12.6,-2.8 11.2,0 19.6,15.4 8.4,15.40003 8.4,25.20003 z"
         id="path1331" /></g><g
       id="path1326"
       style="fill:#ffffff"><path
         style="color:#000000;-inkscape-font-specification:'Reenie Beanie';fill:#ffffff;stroke:none;stroke-opacity:1;-inkscape-stroke:none"
         d="m 1690.8429,1039.4774 q 0,25.2 -23.8,63 -22.4,36.4 -61.6,71.4 -39.2,35 -91,60.2 -51.8,23.8 -107.8,23.8 -25.2,0 -53.2,-8.4 -28,-8.4 -54.6,-23.8 -26.6,-16.8 -47.6,-39.2 -21,-23.8 -30.8,-53.2 -8.4,8.4 -21,28 -11.2,19.6 -25.2,40.6 -14,19.6 -30.8,35 -16.8,14 -35,14 -18.2,0 -30.8,-18.2 -11.2,-19.6 -18.2,-42 -7,-23.8 -9.8,-44.8 -2.8,-21 -2.8,-23.8 0,-16.8 9.8,-63 9.8,-47.6 29.4,-98.00003 19.6,-50.4 49,-89.6 30.8,-39.2 71.4,-39.2 15.4,0 19.6,14 5.6,12.6 5.6,25.2 v 42 q 7,5.6 14,8.4 8.4,1.4 14,5.6 7,2.8 9.8,9.8 4.2,7 4.2,22.4 0,9.8 -1.4,18.2 -1.4,7 -1.4,14 0,36.40003 5.6,71.40003 5.6,35 22.4,63 16.8,26.6 46.2,44.8 29.4,16.8 78.4,16.8 61.6,0 103.6,-25.2 43.4,-26.6 71.4,-57.4 29.4,-32.2 46.2,-57.4 16.8,-26.6 28,-26.6 18.2,0 18.2,18.2 z m -491.4,-61.60003 q 0,-5.6 -2.8,-9.8 -2.8,-5.6 -2.8,-9.8 0,-5.6 2.8,-9.8 2.8,-4.2 2.8,-11.2 0,-4.2 -2.8,-5.6 -2.8,-2.8 -2.8,-5.6 -12.6,2.8 -26.6,23.8 -12.6,21 -25.2,49 -11.2,28.00003 -18.2,57.40003 -7,28 -7,46.2 0,9.8 5.6,32.2 5.6,22.4 12.6,29.4 23.8,-49 43.4,-95.2 21,-46.2 21,-91.00003 z"
         id="path1337" /></g></g></g></svg>
