<svg xmlns="http://www.w3.org/2000/svg" viewBox="0 0 341.95 283.97"><defs><style>.cls-1{fill:#fff;}</style></defs><g id="Layer_2" data-name="Layer 2"><g id="Layer_1-2" data-name="Layer 1"><path class="cls-1" d="M79,21.51A72.21,72.21,0,0,1,130.53,0Q200.81.11,271,0c21.65.35,42.67,11.28,55.76,28.41A72.73,72.73,0,0,1,342,72.82q-.1,69.44,0,138.88a72.33,72.33,0,0,1-22.63,51.93A73.44,73.44,0,0,1,267.39,284c-46.29-.07-92.52.14-138.74-.14-26.39-.42-51.59-16.71-63.28-40.3a72.13,72.13,0,0,1-7.66-32v-100C46.08,124.27,32,134.71,17.06,143.27a205.6,205.6,0,0,0-17-39.61c18-3.06,36-6.27,53.12-12.67C36.83,82.43,17.75,81.24,0,77.21c7.45-12.4,12.53-26,17.19-39.61,14.62,9,29,18.93,40.31,32C58.75,51.8,66.13,34.18,79,21.51"/><path d="M112.85,54.09A47.41,47.41,0,0,0,80.47,84.17c-4.17,11.9-2.08,24.64-2.57,36.89.49,12.81-1.67,26.11,3,38.36,6.2,17.34,23.53,30.21,42.12,30.42,19.28,1.12,38.36-7.17,52.21-20.32,7.59-7.66,18.31-13.65,29.45-11.42,10.09,1.46,17.75,8.63,24.85,15.38,17.47,13.09,41.84,21.24,63,12.88a47.3,47.3,0,0,0,28.68-41.07c.28-14.83,0-29.73.14-44.55a47.74,47.74,0,0,0-15.87-36.41c-9.26-8.56-22-12.32-34.39-12.39-48.1.07-96.21,0-144.31.07a68.17,68.17,0,0,0-13.92,2.08"/><path class="cls-1" d="M129.48,79.57c3.27-1.32,7-.34,10.38-.21,12.6,1.54,25.34,2.3,37.87,4,6.89,1.32,6,12.53-1,12.81-15.11-1-30.14-2.85-45.18-4.45-5.92-.77-7.38-9.47-2.09-12.19"/><path class="cls-1" d="M253.61,80c5.08-.35,10.3-1.6,15.38-.76,5.71,1.87,4.94,11.55-1,12.53-15,1.6-29.94,3.34-45,4.45-6.82.35-8.7-10.23-2.43-12.6,10.93-1.81,22.07-2.23,33-3.62"/><path class="cls-1" d="M149.74,101.85c11.84-3.2,24.71,6.89,24.3,19.21.34,11.84-11.63,21.86-23.19,19.36-11.83-1.74-19.63-15.6-14.82-26.67a20.26,20.26,0,0,1,13.71-11.9"/><path class="cls-1" d="M238.22,102.48c11.56-4.53,25.62,4.31,26.25,16.77,1.39,11.63-9.4,22.7-21.1,21.38-11.83-.49-20.74-13.09-17.61-24.44a20.11,20.11,0,0,1,12.46-13.71Z"/></g></g></svg>