<?xml version="1.0" encoding="UTF-8" standalone="no"?>
<svg
   fill="none"
   viewBox="0 0 74 57"
   version="1.1"
   id="svg60"
   sodipodi:docname="noice.svg"
   width="74"
   height="57"
   inkscape:version="1.2.1 (9c6d41e410, 2022-07-14)"
   xmlns:inkscape="http://www.inkscape.org/namespaces/inkscape"
   xmlns:sodipodi="http://sodipodi.sourceforge.net/DTD/sodipodi-0.dtd"
   xmlns="http://www.w3.org/2000/svg"
   xmlns:svg="http://www.w3.org/2000/svg">
  <defs
     id="defs64" />
  <sodipodi:namedview
     id="namedview62"
     pagecolor="#ffffff"
     bordercolor="#000000"
     borderopacity="0.25"
     inkscape:showpageshadow="2"
     inkscape:pageopacity="0.0"
     inkscape:pagecheckerboard="0"
     inkscape:deskcolor="#d1d1d1"
     showgrid="false"
     inkscape:zoom="8.4285714"
     inkscape:cx="4.5677966"
     inkscape:cy="25.508475"
     inkscape:window-width="1680"
     inkscape:window-height="979"
     inkscape:window-x="-8"
     inkscape:window-y="-8"
     inkscape:window-maximized="1"
     inkscape:current-layer="svg60" />
  <linearGradient
     id="a"
     gradientUnits="userSpaceOnUse"
     x1="154.03101"
     x2="160.269"
     y1="28.331301"
     y2="45.666698">
    <stop
       offset="0"
       stop-color="#757575"
       id="stop2" />
    <stop
       offset=".15"
       stop-color="#757575"
       stop-opacity=".58"
       id="stop4" />
    <stop
       offset=".28"
       stop-color="#757575"
       stop-opacity=".26"
       id="stop6" />
    <stop
       offset=".38"
       stop-color="#757575"
       stop-opacity=".07"
       id="stop8" />
    <stop
       offset=".45"
       stop-color="#757575"
       stop-opacity="0"
       id="stop10" />
  </linearGradient>
  <linearGradient
     id="b"
     gradientUnits="userSpaceOnUse"
     x1="54.2005"
     x2="63.125702"
     y1="52.271301"
     y2="1.0737799"
     gradientTransform="translate(0,0.1)">
    <stop
       offset=".06"
       stop-color="#5231f9"
       id="stop13" />
    <stop
       offset=".32"
       stop-color="#6c2cfc"
       id="stop15" />
    <stop
       offset=".68"
       stop-color="#bb12fc"
       id="stop17" />
    <stop
       offset=".77"
       stop-color="#cf0bf9"
       id="stop19" />
    <stop
       offset=".94"
       stop-color="#ef00f5"
       id="stop21" />
  </linearGradient>
  <linearGradient
     id="c"
     gradientUnits="userSpaceOnUse"
     x1="5.0205002"
     x2="48.146999"
     y1="16.293699"
     y2="59.9133"
     gradientTransform="translate(0,0.1)">
    <stop
       offset=".36"
       stop-color="#3ceb18"
       id="stop24" />
    <stop
       offset=".95"
       stop-color="#00eae8"
       id="stop26" />
  </linearGradient>
  <radialGradient
     id="d"
     cx="0"
     cy="0"
     gradientTransform="matrix(28.7292,0,0,28.406,5.17153,51.1883)"
     gradientUnits="userSpaceOnUse"
     r="1">
    <stop
       offset=".24"
       stop-color="#2fcc0e"
       id="stop29" />
    <stop
       offset=".44"
       stop-color="#2fcc0e"
       stop-opacity=".65"
       id="stop31" />
    <stop
       offset=".65"
       stop-color="#2fcc0e"
       stop-opacity=".3"
       id="stop33" />
    <stop
       offset=".8"
       stop-color="#2fcc0e"
       stop-opacity=".08"
       id="stop35" />
    <stop
       offset=".88"
       stop-color="#2fcc0e"
       stop-opacity="0"
       id="stop37" />
  </radialGradient>
  <path
     d="M 59.6612,0.953986 C 57.4665,1.34132 56.4589,2.80432 56.4589,7.63198 c 0,29.21802 -6.577,37.01132 -10.1286,37.01132 -2.3906,0 -3.2307,-2.114 -3.495,-3.143 2.4212,12.0073 10.8177,11.7904 15.4383,8.5027 1.6307,-1.5797 3.2661,-3.5093 4.8543,-5.831 C 71.5196,31.915 73.6742,21.1793 73.7521,14.3893 73.8442,6.51898 64.8978,0.032319 59.6612,0.953986 Z"
     fill="url(#b)"
     id="path54"
     style="fill:#ffffff" />
  <path
     d="M 42.8329,41.5003 C 42.7975,41.3183 42.7621,41.1363 42.7267,40.9497 40.0034,25.9043 41.2376,0.1 27.4724,0.1 7.75797,0.1 0.211054,41.7337 0.00102461,51.7437 -0.0414533,53.7293 1.23997,55.5517 3.26239,55.9927 5.22817,56.4197 7.17508,55.4 7.96092,53.65 8.0742,53.3957 15.8429,30.109 23.5338,30.109 c 10.1263,0 9.4088,25.991 23.3015,25.991 3.41,0 6.938,-1.743 11.4336,-6.097 -4.6206,3.2877 -13.0171,3.5047 -15.4383,-8.5027 z"
     fill="url(#c)"
     id="path56"
     style="fill:#ffffff;stroke:none" />
  <path
     d="M 42.8329,41.5003 C 42.7975,41.3183 42.7621,41.1363 42.7267,40.9497 40.0034,25.9043 41.2376,0.1 27.4724,0.1 7.75797,0.1 0.211054,41.7337 0.00102461,51.7437 -0.0414533,53.7293 1.23997,55.5517 3.26239,55.9927 5.22817,56.4197 7.17508,55.4 7.96092,53.65 8.0742,53.3957 15.8429,30.109 23.5338,30.109 c 10.1263,0 9.4088,25.991 23.3015,25.991 3.41,0 6.938,-1.743 11.4336,-6.097 -4.6206,3.2877 -13.0171,3.5047 -15.4383,-8.5027 z"
     fill="url(#d)"
     id="path58"
     style="fill:#ffffff;stroke:none"
     inkscape:label="path58" />
</svg>
