<?xml version="1.0" encoding="utf-8"?>
<svg xmlns="http://www.w3.org/2000/svg" version="1.0" width="190.000000pt" height="190.000000pt" viewBox="0 0 190.000000 190.000000" preserveAspectRatio="xMidYMid meet">
	<g transform="translate(0.000000,190.000000) scale(0.100000,-0.100000)" fill="currentColor" stroke="none">
		<path d="M110 950 c0 -517 3 -940 8 -940 4 0 47 23 97 51 50 28 108 61 130 74 139 77 283 159 300 170 11 7 81 46 155 87 74 42 153 86 175 98 52 30 310 175 495 279 80 44 152 85 160 91 8 5 46 26 83 46 55 30 66 39 55 50 -7 6 -74 46 -148 87 -74 41 -151 84 -170 95 -19 12 -80 46 -135 76 -55 31 -122 69 -150 86 -27 16 -56 33 -63 36 -15 7 -383 215 -550 310 -104 59 -301 169 -327 183 -16 8 -45 25 -64 38 -18 13 -38 23 -42 23 -5 0 -9 -422 -9 -940z" />
	</g>
</svg>
