<?xml version="1.0" encoding="UTF-8" standalone="no"?>
<!-- Generator: Adobe Illustrator 23.0.2, SVG Export Plug-In . SVG Version: 6.00 Build 0)  -->

<svg
   version="1.1"
   id="Layer_1"
   x="0px"
   y="0px"
   viewBox="0 0 1504 460"
   style="enable-background:new 0 0 1504 460;"
   xml:space="preserve"
   sodipodi:docname="wordmark_white.svg"
   inkscape:version="1.1 (c68e22c387, 2021-05-23)"
   xmlns:inkscape="http://www.inkscape.org/namespaces/inkscape"
   xmlns:sodipodi="http://sodipodi.sourceforge.net/DTD/sodipodi-0.dtd"
   xmlns="http://www.w3.org/2000/svg"
   xmlns:svg="http://www.w3.org/2000/svg"><defs
   id="defs35"><style
     id="style2-6">
      .cls-1 {
        fill-rule: evenodd;
      }
    </style></defs><sodipodi:namedview
   id="namedview33"
   pagecolor="#ffffff"
   bordercolor="#666666"
   borderopacity="1.0"
   inkscape:pageshadow="2"
   inkscape:pageopacity="0.0"
   inkscape:pagecheckerboard="0"
   showgrid="false"
   inkscape:zoom="0.36635638"
   inkscape:cx="418.99093"
   inkscape:cy="487.2305"
   inkscape:window-width="1680"
   inkscape:window-height="987"
   inkscape:window-x="-8"
   inkscape:window-y="-8"
   inkscape:window-maximized="1"
   inkscape:current-layer="layer2" />
<style
   type="text/css"
   id="style2">
	.st0{fill:#E04949;}
</style>
<g
   inkscape:groupmode="layer"
   id="layer2"
   inkscape:label="Letters"><g
     id="g30"
     style="enable-background:new 0 0 1504 460;fill:#ffffff">
	
	<path
   d="M634.4,121.6c4.3-1.4,9.7,1.7,9.8,6.3c0.1,15.7,0,31.4,0,47.1c8,0,15.9,0,23.9,0c3.9-0.2,7.9,2.9,7.9,7   c0.6,4.1-2.9,8.2-7,8.2c-8.2,0.1-16.5,0-24.7,0c0,42.3,0,84.5,0,126.8c0.2,5.8-7.5,9-11.9,5.8c-2.2-1.4-3.5-4.1-3.3-6.7   c0-41.9,0-83.9,0-125.8c-6.7,0-13.4,0.1-20,0c-4.6,0.2-8.4-4.8-7.3-9.2c0.5-3.4,3.8-6,7.2-6c6.7-0.1,13.4,0,20.1-0.1   c0-15.4-0.1-30.7,0-46.1C628.9,125.6,631.1,122.4,634.4,121.6z"
   id="path12"
   style="fill:#ffffff" />
	<path
   d="M970.4,121.7c4.4-1.7,10.2,1.4,10.3,6.3c0.1,62,0,124,0,186c0.3,3.2-0.1,6.9-3.1,8.7c-4.9,3.7-13-0.3-12.4-6.6   c-0.1-62,0-124.1,0-186.1C964.9,126.4,966.9,122.7,970.4,121.7z"
   id="path14"
   style="fill:#ffffff" />
	<path
   d="M1185.5,129c-0.3-4.8,4.7-8.8,9.3-7.6c3.5,0.6,6,4.1,5.7,7.6c-0.2,25.1,0.1,50.2,0.2,75.3c9.8-12.3,23.2-21.6,38.3-26.1   c19.6-5.8,41.5-3.6,59.3,6.5c12.7,7.1,23.3,18,29.9,31c8.9,17.1,10.6,37.7,5.3,56.2c-5.3,17.9-17.4,33.7-33.5,43.2   c-17,10.4-38.2,13.3-57.5,8.5c-16.5-4.2-31.4-14.1-41.8-27.5c-0.3,7.3-0.2,14.5-0.3,21.8c-0.4,5.6-7.9,8.1-12,4.7   c-2-1.5-3-4-2.9-6.5C1185.5,253.7,1185.5,191.4,1185.5,129 M1253.5,190.7c-15.5,1.8-30.1,10-39.7,22.2   c-13.1,16.2-16.6,39.3-9.1,58.7c5.8,15.7,18.6,28.5,34.1,34.7c17.3,7.1,38,5.3,53.8-4.7c17.4-10.4,28.7-30.3,28.7-50.6   c0.4-18.8-8.7-37.4-23.7-48.7C1285.1,192.9,1269,188.8,1253.5,190.7z"
   id="path16"
   style="fill:#ffffff" />
	
	<path
   d="M530.3,175.3c12.5-1.9,25.8-0.6,37.1,5.2c7.3,4,14.1,9.8,17.3,17.6c2.3,5.3-4.9,10.9-9.4,7.6c-3.9-4.8-8.2-9.4-13.6-12.5   c-10-5.9-22.5-6.2-33.5-3.4c-7.4,1.8-14.6,6.1-18.1,13.1c-3.6,7.8-2.7,18.1,3.7,24.2c8.7,9,21.4,11.4,32.8,15.3   c13.8,4.5,28.7,9,38.3,20.6c7.1,8.1,8.5,19.8,5.9,30c-3.1,11.8-12.1,21.5-23,26.8c-14.2,7.2-30.9,7.3-46.1,3.6   c-13.4-3.5-26.5-11.9-32.1-25.1c-1.8-3.9,1-9,5.3-9.4c3.8-0.6,7.4,1.8,9.1,5.1c5,8.6,13.8,14.6,23.5,16.6   c11.2,2.5,23.5,2.2,33.8-3.2c6.6-3.4,12.4-8.9,14.8-16c2-6.2,1.5-13.5-2.5-18.9c-4.1-5.8-10.6-9.4-17-12.1   c-14.9-6-31.2-8.5-45.1-16.9c-8-4.7-15.2-11.8-17.9-20.9c-2.5-9.7-1.3-20.8,4.8-29C505.7,183,518,177.2,530.3,175.3z"
   id="path20"
   style="fill:#ffffff" />
	<path
   d="M722.5,185.5c24.4-14.9,57.2-13.8,80.7,2.3c20.6,13.8,33.9,38.2,33.3,63.1c-0.1,3.8-3.8,6.9-7.5,6.6   c-42.2,0-84.5,0-126.7,0c1.3,16.7,10.4,32.5,23.9,42.3c8.7,6.4,19.1,10.5,29.9,11.3c16.4,1.4,33.5-4.1,45.3-15.8   c2.5-2.4,4.2-5.9,7.8-6.6c6.5-1.9,11.9,7.4,7.7,12.3c-11,12.5-26.1,21.6-42.7,24.1c-14.9,2.3-30.7,0.7-44.4-5.8   c-15.3-7-28.2-19.1-35.9-34c-8.4-15.6-10.5-34.2-6.7-51.4C691.5,213.8,704.7,195.8,722.5,185.5 M729.7,198.7   c-15.8,9.8-26.5,27.3-27.9,45.8c39.7,0,79.4,0,119.1,0c-0.9-11.3-5.1-22.3-12.1-31.3c-10.2-13.3-26.1-22-42.7-23.2   C753.4,188.9,740.4,192,729.7,198.7z"
   id="path22"
   style="fill:#ffffff" />
	<path
   d="M859,181.9c-0.1-4.8,5.4-8.4,9.9-6.8c3.4,0.9,5.6,4.4,5.3,7.9c0,7.8,0,15.6,0,23.4c15.1-20.3,40.3-32.9,65.7-31.5   c5.6,0.3,8.2,7.8,5,12c-1.8,2.5-5,3.4-7.9,3.2c-17.7-0.2-35.1,8.1-46.8,21.2c-9.8,11.1-15.9,25.8-16,40.7c0,20.3,0,40.7,0,61.1   c0.1,3.3-0.1,7.2-3,9.3c-4.3,4-12.2,0.5-12.3-5.3C859,272,859,226.9,859,181.9z"
   id="path24"
   style="fill:#ffffff" />
	<path
   d="M1056.2,178.4c25.5-8.2,55-1.4,74.3,17.2c12.9,12,21.3,28.8,23.1,46.3c0.7,5.7,0.3,11.4,0.4,17.1c0,19,0,38.1,0,57.1   c0.4,5.2-5.1,9.2-10,7.7c-3.3-1-5.4-4.4-5.3-7.8c-0.1-7,0-14.1,0-21.1c-10,13.4-24.4,23.6-40.5,28.3c-26.9,8.1-57.6-1.5-76.1-22.3   c-10.8-12.1-17.7-27.6-18.9-43.8c-1.3-14.7,1.8-29.8,9-42.8C1021.5,197.2,1037.7,184.2,1056.2,178.4 M1070.6,190.8   c-20.8,2.5-39.6,16.8-47.6,36.2c-6.8,15.9-6.3,34.9,1.6,50.3c7.3,15,21.3,26.5,37.2,31.2c13.9,3.9,29.2,3,42.3-3.4   c22.9-10.4,37.5-36.2,34.3-61.1c-1.8-17-11.2-33.3-25.4-42.9C1100.8,192.5,1085.3,188.8,1070.6,190.8z"
   id="path26"
   style="fill:#ffffff" />
	<path
   d="M1391.2,175.3c16.6-2.6,35.2,0.7,47.6,12.9c3,3.4,6.4,7,7.2,11.7c0.9,5.7-8.2,9.8-11.2,4.3c-5.3-6.7-12.5-12.2-20.8-14.5   c-8.9-2.4-18.4-1.7-27.2,0.8c-7.5,2.2-14.4,7.6-16.9,15.2c-1.8,6.4-1.3,13.9,2.9,19.3c5.2,7,13.6,10.5,21.6,13.3   c10.1,3.3,20.3,6.2,30.2,10.1c9.3,3.8,18.3,9.4,23.8,18.1c8.5,13.9,4.6,33.1-6.9,44.1c-13.5,13.8-34.3,17.4-52.7,14   c-15.6-2.5-31.7-11.2-38.2-26.3c-1.8-3.9,0.9-9.1,5.3-9.5c4.1-0.7,7.7,2.2,9.5,5.6c4.7,7.8,12.6,13.4,21.5,15.6   c11.6,3,24.6,2.8,35.4-2.8c6.5-3.2,12-8.7,14.6-15.5c2.5-7,1.6-15.6-3.6-21.1c-6.1-7-15-10.4-23.5-13.3   c-13.3-4.3-27.2-7.5-39.1-15.1c-7.5-4.8-14.2-11.9-16.3-20.8c-2.3-9.9-0.6-21,5.9-29.1C1367.6,182.6,1379.4,177.2,1391.2,175.3z"
   id="path28"
   style="fill:#ffffff" />
</g><rect
     style="fill:#000000;fill-rule:evenodd"
     id="rect532"
     width="350.06897"
     height="212.90742"
     x="81.887474"
     y="117.37206" /></g>

<g
   inkscape:groupmode="layer"
   id="layer3"
   inkscape:label="Dot"><g
     id="g52"
     transform="matrix(0.2138802,0,0,0.2138802,43.920788,14.778529)"
     style="display:inline"><g
       id="layer4"
       inkscape:label="Dot"
       style="opacity:1"
       transform="translate(743.86291,743.82288)"><path
         style="fill:#ffed00;fill-opacity:1;stroke:none;stroke-width:3.91395px;stroke-linecap:butt;stroke-linejoin:miter;stroke-opacity:1"
         d="m -528.94532,-366.67765 c -76.85256,101.9749 -124.08669,196.41748 -165.67922,311.573957 L 1193.4827,601.72486 c 38.2797,-108.47868 59.1645,-223.54817 62.6544,-345.20842 z"
         id="path5496"
         sodipodi:nodetypes="ccccc" /><path
         style="fill:#ff8c00;fill-opacity:1;stroke:none;stroke-width:3.91395px;stroke-linecap:butt;stroke-linejoin:miter;stroke-opacity:1"
         d="m -528.94532,-366.67765 c 80.59919,-101.50363 185.64533,-184.17647 309.49684,-259.317 l 1391.43158,484.47531 c 55.3191,126.087804 78.6691,256.88335 84.154,398.03578 L -528.94532,-366.67765"
         id="path7183"
         sodipodi:nodetypes="ccccc" /><path
         style="fill:#e40303;fill-opacity:1;stroke:none;stroke-width:3.91395px;stroke-linecap:butt;stroke-linejoin:miter;stroke-opacity:1"
         d="M -219.44848,-625.99465 C 336.11409,-914.56267 967.47174,-642.55327 1171.9831,-141.51934 706.27325,-302.63159 231.46908,-465.71778 -219.44848,-625.99465 Z"
         id="path7731"
         sodipodi:nodetypes="ccc" /><path
         style="fill:#008026;fill-opacity:1;stroke:none;stroke-width:3.91395px;stroke-linecap:butt;stroke-linejoin:miter;stroke-opacity:1"
         d="M -694.62454,-55.103693 C -728.15576,53.226469 -748.28817,169.55972 -743.03335,297.42683 L 1011.1974,908.06175 c 79.5671,-91.75538 142.2094,-199.51689 182.2853,-306.33689 L -694.62454,-55.103693"
         id="path8929"
         sodipodi:nodetypes="ccccc" /><path
         style="fill:#004dff;fill-opacity:1;stroke:none;stroke-width:3.91395px;stroke-linecap:butt;stroke-linejoin:miter;stroke-opacity:1"
         d="m -743.03335,297.42683 c 8.31087,149.02126 43.8814,275.40641 104.71697,407.1177 l 1317.1879,457.26207 c 133.85098,-62.1878 241.49667,-149.856 332.32588,-253.74485 z"
         id="path9811"
         sodipodi:nodetypes="ccccc" /><path
         style="fill:#b10787;fill-opacity:1;stroke:none;stroke-width:3.91395px;stroke-linecap:butt;stroke-linejoin:miter;stroke-opacity:1"
         d="M -638.31638,704.54453 678.87152,1161.8066 C 130.77026,1410.1788 -422.64995,1137.254 -638.31638,704.54453"
         id="path10302"
         sodipodi:nodetypes="ccc" /></g><g
       id="layer1-3"
       inkscape:label="Letters"
       style="display:inline"
       transform="translate(743.86291,743.82288)"><g
         id="g11305"
         transform="translate(-728.03144,-715.7792)"><path
           d="m 624.85,497.33 c 141.25,-12.75 287.22,42.19 383.74,146.21 15.85,20.52 13.58,52.08 -5.08,70.1 -20.89,23.61 -61.55,21.72 -81.69,-1.89 C 838.23,627.88 712.41,590.77 596.53,613.46 497.23,632.17 406.94,694.6 355,781.34 c -72.22,114.97 -70.51,270.43 2.08,384.85 51.01,82.67 136.36,143.67 231.4,164.14 106.14,21.21 222.99,-2.68 306.72,-73.01 13.12,-10.07 24.21,-22.5 37.43,-32.44 23.93,-15.99 60.11,-9.1 76.01,15.11 13.68,19.5 11.6,48.15 -3.97,65.99 C 888.14,1429.69 701.19,1476.45 538.49,1431.86 420.39,1399.05 315.73,1319.24 254.64,1212.73 207.6,1132.51 185.24,1038.24 191.15,945.44 197.94,831.11 247.2,720.02 327.09,638 404.81,556.94 513.03,506.38 624.85,497.33 Z"
           id="path11293"
           style="fill:#ffffff" /><path
           d="m 1245.49,803.15 c 67.65,-42.61 150.17,-61.28 229.46,-50.46 69.82,8.27 136.08,39.97 188.43,86.55 73.38,65.67 117.09,163.91 114.64,262.53 -0.18,95.29 0.18,190.58 -0.14,285.86 -0.79,32.3 -34.93,57.86 -66.26,50.65 -22.32,-3.84 -39.32,-23.85 -42.65,-45.75 -2.03,-15.16 -0.88,-30.55 -0.88,-45.8 -50.6,48.61 -114.31,85.54 -184.04,97.09 -77.26,13.08 -158.72,-2.36 -226.41,-41.59 -80.45,-45.33 -140.7,-124.22 -164.63,-213.26 -19.78,-74.4 -14.32,-155.36 15.9,-226.2 27.67,-65.58 76.1,-122.14 136.58,-159.62 m 134.69,61.93 c -55.31,11.88 -106.18,43.95 -140.14,89.33 -38.4,50.23 -55.17,116.13 -45.84,178.61 10.86,77.36 62.38,147.64 132.94,181.24 44.5,22.64 96.2,27.73 145.13,20.15 71.85,-12.66 136.4,-60.49 169.49,-125.51 25.04,-46.72 31.79,-101.99 22.83,-153.88 -12.24,-69.83 -57.34,-133.46 -120.41,-166.31 -49.45,-27.52 -108.83,-35 -164,-23.63 z"
           id="path11295"
           style="fill:#ffffff" /></g></g></g></g><style
   type="text/css"
   id="style11019">
	.st0{fill:#E04949;}
</style><style
   type="text/css"
   id="style11291">
	.st0{fill:#E04949;}
</style></svg>
