<?xml version="1.0" encoding="UTF-8" standalone="no"?>
<!-- Generator: Adobe Illustrator 23.0.2, SVG Export Plug-In . SVG Version: 6.00 Build 0)  -->

<svg
   version="1.1"
   id="Layer_1"
   x="0px"
   y="0px"
   viewBox="0 0 2000 2000"
   style="enable-background:new 0 0 2000 2000;"
   xml:space="preserve"
   sodipodi:docname="icon.svg"
   inkscape:version="1.1 (c68e22c387, 2021-05-23)"
   xmlns:inkscape="http://www.inkscape.org/namespaces/inkscape"
   xmlns:sodipodi="http://sodipodi.sourceforge.net/DTD/sodipodi-0.dtd"
   xmlns="http://www.w3.org/2000/svg"
   xmlns:svg="http://www.w3.org/2000/svg"><defs
   id="defs17" /><sodipodi:namedview
   id="namedview15"
   pagecolor="#ffffff"
   bordercolor="#666666"
   borderopacity="1.0"
   inkscape:pageshadow="2"
   inkscape:pageopacity="0.0"
   inkscape:pagecheckerboard="0"
   showgrid="false"
   inkscape:zoom="0.3765"
   inkscape:cx="691.89907"
   inkscape:cy="1000"
   inkscape:window-width="1680"
   inkscape:window-height="987"
   inkscape:window-x="-8"
   inkscape:window-y="-8"
   inkscape:window-maximized="1"
   inkscape:current-layer="layer1" />
<style
   type="text/css"
   id="style2">
	.st0{fill:#E04949;}
</style>



<g
   inkscape:groupmode="layer"
   id="layer1"
   inkscape:label="Letter fill"><rect
     style="fill:#000000;fill-rule:evenodd;stroke-width:1.01987"
     id="rect201"
     width="1612.6881"
     height="1038.9036"
     x="182.79666"
     y="475.04062" /></g><g
   inkscape:groupmode="layer"
   id="layer2"
   inkscape:label="Dot"><g
     id="g8">
	<path
   class="st0"
   d="m 908.83,14.74 c 28.28,-4.11 56.93,-3.6 85.44,-3.56 99.94,-2.13 199.93,13.72 295.49,42.7 181.87,55.5 346.41,165.39 468.21,311.37 143.89,171.03 227.71,392.47 229.69,616.18 8.13,275.56 -108.82,550.93 -310.23,738.73 -171.8,163.45 -404.49,261.37 -641.53,268.63 -41.31,-0.42 -82.76,1.94 -123.88,-3 C 784.17,1975.02 658.53,1938.56 544.59,1879.46 392.66,1801.04 261.85,1682.28 168.75,1538.88 80.81,1403.99 26.52,1247.2 13.21,1086.66 8.13,1044.1 10.53,1001.12 10.21,958.33 16.45,799.13 62.28,641.6 142.45,503.89 234.17,345.52 370.71,213.45 532.15,127.18 648.41,64.93 777.38,25.83 908.83,14.74 M 624.85,497.33 C 513.03,506.39 404.82,556.94 327.1,638 247.21,720.02 197.95,831.12 191.16,945.44 c -5.91,92.79 16.45,187.06 63.49,267.29 61.08,106.52 165.74,186.32 283.85,219.13 162.69,44.59 349.64,-2.17 466.18,-125.88 15.57,-17.84 17.65,-46.49 3.97,-65.99 -15.89,-24.21 -52.07,-31.1 -76.01,-15.11 -13.22,9.94 -24.3,22.37 -37.43,32.44 -83.73,70.33 -200.58,94.22 -306.72,73.01 -95.05,-20.47 -180.39,-81.47 -231.4,-164.14 -72.59,-114.42 -74.3,-269.87 -2.08,-384.85 51.94,-86.74 142.22,-149.17 241.52,-167.89 115.89,-22.69 241.71,14.42 325.29,98.29 20.15,23.61 60.81,25.51 81.69,1.89 18.67,-18.02 20.93,-49.58 5.08,-70.1 C 912.07,539.52 766.1,484.57 624.85,497.33 m 620.64,305.82 c -60.48,37.48 -108.91,94.04 -136.59,159.61 -30.22,70.84 -35.67,151.8 -15.9,226.2 23.93,89.05 84.19,167.93 164.63,213.26 67.69,39.23 149.15,54.67 226.41,41.59 69.73,-11.55 133.44,-48.48 184.04,-97.09 0,15.25 -1.16,30.64 0.88,45.8 3.33,21.9 20.33,41.91 42.65,45.75 31.33,7.21 65.47,-18.35 66.26,-50.65 0.32,-95.29 -0.05,-190.58 0.14,-285.86 2.45,-98.61 -41.26,-196.86 -114.64,-262.53 -52.35,-46.58 -118.61,-78.28 -188.43,-86.55 -79.28,-10.8 -161.8,7.87 -229.45,50.47 z"
   id="path4" />
	<path
   class="st0"
   d="m 1380.18,865.08 c 55.17,-11.37 114.55,-3.88 163.99,23.61 63.07,32.86 108.17,96.49 120.41,166.31 8.96,51.9 2.22,107.16 -22.83,153.88 -33.08,65.02 -97.63,112.85 -169.49,125.51 -48.93,7.58 -100.64,2.5 -145.13,-20.15 -70.56,-33.6 -122.08,-103.88 -132.94,-181.24 -9.33,-62.48 7.44,-128.37 45.84,-178.61 33.97,-45.37 84.84,-77.44 140.15,-89.31 z"
   id="path6" />
</g></g></svg>
