<?xml version="1.0" encoding="UTF-8" standalone="no"?>
<!-- Generator: Adobe Illustrator 23.0.2, SVG Export Plug-In . SVG Version: 6.00 Build 0)  -->

<svg
   version="1.1"
   id="Layer_1"
   x="0px"
   y="0px"
   viewBox="0 0 2000 2000"
   style="enable-background:new 0 0 2000 2000;"
   xml:space="preserve"
   sodipodi:docname="icon.svg"
   inkscape:version="1.2.1 (9c6d41e410, 2022-07-14)"
   xmlns:inkscape="http://www.inkscape.org/namespaces/inkscape"
   xmlns:sodipodi="http://sodipodi.sourceforge.net/DTD/sodipodi-0.dtd"
   xmlns="http://www.w3.org/2000/svg"
   xmlns:svg="http://www.w3.org/2000/svg"><defs
   id="defs17" /><sodipodi:namedview
   id="namedview15"
   pagecolor="#ffffff"
   bordercolor="#666666"
   borderopacity="1.0"
   inkscape:pageshadow="2"
   inkscape:pageopacity="0.0"
   inkscape:pagecheckerboard="0"
   showgrid="false"
   inkscape:zoom="0.3765"
   inkscape:cx="909.69456"
   inkscape:cy="998.67198"
   inkscape:window-width="1680"
   inkscape:window-height="979"
   inkscape:window-x="-8"
   inkscape:window-y="-8"
   inkscape:window-maximized="1"
   inkscape:current-layer="layer2"
   inkscape:showpageshadow="2"
   inkscape:deskcolor="#d1d1d1" />
<style
   type="text/css"
   id="style2">
	.st0{fill:#E04949;}
</style>



<g
   inkscape:groupmode="layer"
   id="layer2"
   inkscape:label="Dot"><path
     class="st0"
     d="m 908.83,14.74 c 28.28,-4.11 56.93,-3.6 85.44,-3.56 99.94,-2.13 199.93,13.72 295.49,42.7 181.87,55.5 346.41,165.39 468.21,311.37 143.89,171.03 227.71,392.47 229.69,616.18 8.13,275.56 -108.82,550.93 -310.23,738.73 -171.8,163.45 -404.49,261.37 -641.53,268.63 -41.31,-0.42 -82.76,1.94 -123.88,-3 C 784.17,1975.02 658.53,1938.56 544.59,1879.46 392.66,1801.04 261.85,1682.28 168.75,1538.88 80.81,1403.99 26.52,1247.2 13.21,1086.66 8.13,1044.1 10.53,1001.12 10.21,958.33 16.45,799.13 62.28,641.6 142.45,503.89 234.17,345.52 370.71,213.45 532.15,127.18 648.41,64.93 777.38,25.83 908.83,14.74"
     id="path4"
     inkscape:label="path4"
     sodipodi:nodetypes="ccccccccccccccc" /><g
     aria-label="Ca"
     id="text1267"
     style="font-size:1400px;font-family:'Reenie Beanie';-inkscape-font-specification:'Reenie Beanie';stroke:#a0a0a0;stroke-opacity:0.997947"><g
       id="path1324"><path
         style="color:#000000;-inkscape-font-specification:'Reenie Beanie';fill:#000000;stroke:none;stroke-opacity:1;-inkscape-stroke:none"
         d="m 906.84387,1010.0774 q 0,19.6 -11.2,40.6 -9.8,21 -25.2,42 -15.4,21 -33.6,40.6 -18.2,18.2 -33.6,32.2 -37.8,33.6 -78.4,64.4 -39.2,29.4 -82.6,53.2 -42,23.8 -88.2,37.8 -46.2,14 -96.6,14 -152.6,0 -152.6,-156.8 0,-15.4 12.6,-60.2 12.6,-44.8 32.2,-102.2 19.6,-57.40003 46.2,-120.40003 26.6,-63 54.6,-114.8 28,-53.2 54.6,-86.8 28,-33.6 51.8,-33.6 15.4,0 22.4,9.8 8.4,9.8 8.4,21 -1.4,8.4 -19.6,36.4 -18.2,26.6 -37.8,54.6 -2.8,4.2 -9.8,14 -7,9.8 -14,19.6 -8.4,11.2 -16.8,23.8 -5.6,9.8 -25.2,50.4 -18.2,39.2 -39.2,92.4 -21,51.80003 -37.8,109.20003 -16.8,56 -16.8,98 0,23.8 9.8,37.8 11.2,14 25.2,21 15.4,7 30.8,9.8 16.8,1.4 29.4,1.4 51.8,0 109.2,-22.4 58.8,-23.8 112,-61.6 53.2,-37.8 98,-86.8 44.8,-50.4 70,-103.60003 5.6,-9.8 11.2,-12.6 7,-2.8 12.6,-2.8 11.2,0 19.6,15.4 8.4,15.40003 8.4,25.20003 z"
         id="path1331" /></g><g
       id="path1326"><path
         style="color:#000000;-inkscape-font-specification:'Reenie Beanie';fill:#000000;stroke:none;stroke-opacity:1;-inkscape-stroke:none"
         d="m 1690.8429,1039.4774 q 0,25.2 -23.8,63 -22.4,36.4 -61.6,71.4 -39.2,35 -91,60.2 -51.8,23.8 -107.8,23.8 -25.2,0 -53.2,-8.4 -28,-8.4 -54.6,-23.8 -26.6,-16.8 -47.6,-39.2 -21,-23.8 -30.8,-53.2 -8.4,8.4 -21,28 -11.2,19.6 -25.2,40.6 -14,19.6 -30.8,35 -16.8,14 -35,14 -18.2,0 -30.8,-18.2 -11.2,-19.6 -18.2,-42 -7,-23.8 -9.8,-44.8 -2.8,-21 -2.8,-23.8 0,-16.8 9.8,-63 9.8,-47.6 29.4,-98.00003 19.6,-50.4 49,-89.6 30.8,-39.2 71.4,-39.2 15.4,0 19.6,14 5.6,12.6 5.6,25.2 v 42 q 7,5.6 14,8.4 8.4,1.4 14,5.6 7,2.8 9.8,9.8 4.2,7 4.2,22.4 0,9.8 -1.4,18.2 -1.4,7 -1.4,14 0,36.40003 5.6,71.40003 5.6,35 22.4,63 16.8,26.6 46.2,44.8 29.4,16.8 78.4,16.8 61.6,0 103.6,-25.2 43.4,-26.6 71.4,-57.4 29.4,-32.2 46.2,-57.4 16.8,-26.6 28,-26.6 18.2,0 18.2,18.2 z m -491.4,-61.60003 q 0,-5.6 -2.8,-9.8 -2.8,-5.6 -2.8,-9.8 0,-5.6 2.8,-9.8 2.8,-4.2 2.8,-11.2 0,-4.2 -2.8,-5.6 -2.8,-2.8 -2.8,-5.6 -12.6,2.8 -26.6,23.8 -12.6,21 -25.2,49 -11.2,28.00003 -18.2,57.40003 -7,28 -7,46.2 0,9.8 5.6,32.2 5.6,22.4 12.6,29.4 23.8,-49 43.4,-95.2 21,-46.2 21,-91.00003 z"
         id="path1337" /></g></g></g></svg>
