<?xml version="1.0" encoding="utf-8"?>
<!-- Generator: Adobe Illustrator 21.1.0, SVG Export Plug-In . SVG Version: 6.00 Build 0)  -->
<svg version="1.1" id="Layer_1" xmlns="http://www.w3.org/2000/svg" xmlns:xlink="http://www.w3.org/1999/xlink" x="0px" y="0px" viewBox="0 0 400 400" style="enable-background:new 0 0 400 400;" xml:space="preserve">
	<g fill="currentColor">
		<path d="M333,47.1L184.4,130c-1.1,0.6-1.8,1.8-1.8,3v69.4l34.5,22v-71.2c0-1.3,0.7-2.4,1.8-3l79.6-44.4c2.3-1.3,5.1,0.4,5.1,3v72.8
		c0,0,0,0,0,0v59.1h0c0.7,16.1-9.6,31.3-25.7,36.1c-9.7,2.9-20.3,1.6-29-3.7l-79.4-50.6l-0.3-0.2c-18-11-39.8-13.3-59.7-6.4
		c-17.1,5.9-31.1,18-39.5,34.1c-8.4,16.1-10.3,34.6-5.4,51.9c5.2,18.3,17.3,33.4,33.9,42.6c10.6,5.8,22.1,8.7,33.8,8.7
		c6.8,0,13.6-1,20.3-3c19.1-5.7,35-19.3,43.6-37.4l1.3-2.9l-29.4-18.8l-3.1,7c-4.4,9.1-12.5,16-22.2,18.9c-9.3,2.8-19.2,1.7-27.7-2.9
		c-8.5-4.7-14.7-12.4-17.4-21.8c-5.2-18.1,5.1-37.9,22.9-44c3.9-1.3,7.9-2,11.8-2c6.5,0,12.9,1.7,18.6,5.2l79.5,50.7l0.3,0.2
		c11.2,6.8,23.9,10.3,36.7,10.3c6.8,0,13.6-1,20.2-2.9c31.1-9.3,51-38.2,50.4-69.1h0V50.2C338.2,47.5,335.3,45.9,333,47.1z" />
	</g>
</svg>