<svg xmlns="http://www.w3.org/2000/svg" viewBox="0 0 9360 3250">
    <g fill="rgb(32,32,31)" style="transform: none;">
        <g>
            <path d="M825 2925 c-142 -27 -253 -83 -346 -176 -105 -104 -174 -250 -193 -410 -6 -47 -4 -59 13 -81 12 -14 34 -31 50 -36 l28 -10 6 68 c3 38 17 100 31 140 67 195 207 332 403 396 80 26 100 29 218 28 110 -1 145 -5 230 -29 106 -30 265 -45 265 -26 0 28 -255 115 -399 136 -116 18 -212 18 -306 0z"></path>
            <path d="M2031 2624 c-30 -27 -32 -35 -41 -129 -5 -55 -10 -113 -11 -130 0 -16 -3 -24 -6 -17 -2 6 -9 12 -14 12 -13 0 -10 -69 5 -110 12 -33 16 -35 57 -35 l44 0 11 115 c7 63 12 130 13 148 1 20 10 42 24 56 l23 23 205 -38 c210 -40 269 -46 269 -29 0 6 -4 10 -9 10 -5 0 -11 9 -14 19 -9 35 -50 49 -252 86 -289 53 -267 52 -304 19z"></path>
            <path d="M2813 2495 c-11 -8 -63 -85 -114 -172 -57 -96 -95 -151 -97 -140 -5 25 -31 21 -37 -5 -3 -13 -6 -54 -8 -93 l-2 -70 48 0 49 0 118 194 c64 106 124 197 132 202 14 8 327 -35 453 -62 28 -6 86 -14 131 -19 45 -5 148 -18 230 -29 81 -12 172 -21 202 -21 l53 0 -18 31 c-10 17 -26 35 -35 40 -21 11 -454 71 -488 67 -14 -1 -31 2 -39 6 -15 9 -486 85 -531 86 -14 0 -35 -7 -47 -15z"></path>
            <path d="M4424 2295 c-191 -42 -353 -207 -398 -408 -8 -34 -20 -116 -26 -182 -9 -97 -39 -418 -40 -421 0 0 -13 1 -30 4 -17 2 -30 10 -30 18 0 8 -7 14 -15 14 -20 0 -21 -83 -1 -100 16 -12 166 -27 166 -16 0 58 54 568 66 615 42 177 175 324 345 382 67 22 112 23 356 3 l83 -7 -16 32 c-8 17 -24 36 -34 41 -21 11 -262 40 -325 39 -22 0 -67 -7 -101 -14z"></path>
            <path d="M1286 2251 c62 -56 82 -113 50 -140 -27 -22 -152 -39 -366 -50 -118 -6 -245 -18 -283 -26 -239 -50 -387 -267 -387 -565 0 -212 71 -386 217 -534 53 -53 171 -146 187 -146 3 0 6 12 5 28 0 21 -14 38 -60 75 -116 93 -201 230 -240 388 -18 69 -21 102 -16 184 8 151 52 257 146 359 109 116 189 139 543 156 216 10 298 21 335 45 20 14 23 24 23 81 0 38 -6 77 -15 94 -23 44 -82 80 -130 80 l-40 -1 31 -28z"></path>
            <path d="M3347 2193 c-39 -63 -47 -80 -47 -109 0 -23 2 -25 16 -14 13 12 14 8 9 -36 -7 -57 -85 -915 -85 -934 0 -7 -7 -10 -15 -6 -11 4 -15 -2 -15 -22 0 -40 17 -52 72 -52 42 0 48 3 48 21 0 18 89 964 106 1127 l7 62 -36 0 c-32 0 -40 -5 -60 -37z"></path>
            <path d="M5351 2214 c-179 -48 -330 -203 -385 -394 -9 -30 -25 -154 -36 -275 -11 -121 -22 -250 -26 -287 l-6 -68 -62 0 c-34 0 -67 -5 -74 -12 -9 -9 -16 -7 -31 6 -12 11 -43 20 -80 23 -34 3 -61 10 -61 14 0 5 -4 9 -10 9 -5 0 -10 -13 -10 -28 0 -42 35 -69 100 -78 30 -3 63 -13 72 -21 12 -11 29 -13 65 -9 26 4 78 9 116 12 37 3 67 10 67 15 0 60 54 569 65 613 35 139 145 281 266 346 111 59 186 71 354 58 98 -8 124 -13 141 -29 17 -16 34 -20 80 -18 33 1 162 -2 288 -6 l230 -8 -20 34 c-30 51 -63 57 -336 64 -210 5 -245 8 -261 23 -35 31 -347 43 -446 16z"></path>
            <path d="M8391 2200 c-115 -15 -199 -38 -290 -82 -110 -53 -208 -149 -268 -263 -23 -44 -43 -74 -43 -67 0 27 -20 10 -20 -19 0 -54 15 -69 68 -69 48 0 48 0 74 53 58 118 159 222 268 277 166 84 431 113 600 66 59 -17 180 -22 180 -7 0 15 -133 78 -202 95 -82 20 -267 28 -367 16z"></path>
            <path d="M6960 2155 c-236 -50 -401 -171 -512 -372 -21 -38 -38 -60 -38 -50 0 25 -29 21 -35 -5 -3 -13 -16 -142 -30 -288 -41 -432 -40 -410 -21 -410 9 0 16 8 17 18 0 9 9 -12 19 -46 33 -119 95 -226 175 -307 41 -41 79 -75 84 -75 6 0 11 15 11 33 0 24 -8 41 -31 63 -41 38 -103 145 -129 219 -86 246 -58 542 74 780 25 45 69 100 125 155 100 99 203 157 340 191 88 22 89 22 414 3 74 -4 107 -3 107 5 0 15 -67 47 -151 72 -96 27 -323 35 -419 14z"></path>
            <path d="M1916 1715 c-37 -56 -51 -120 -21 -95 19 16 19 8 0 -175 -8 -77 -15 -147 -15 -156 0 -14 -33 -8 -222 38 -272 67 -299 71 -333 49 -14 -9 -25 -22 -25 -29 0 -6 -11 -35 -24 -64 -21 -45 -30 -53 -64 -62 -43 -12 -115 -2 -178 24 -46 19 -44 19 -44 -8 0 -31 45 -70 100 -88 25 -8 84 -14 132 -14 77 0 89 3 112 24 14 13 32 44 40 69 30 87 18 86 264 26 132 -33 239 -54 273 -54 l57 0 7 73 c4 39 15 158 26 262 25 252 26 235 -15 235 -29 0 -37 -7 -70 -55z"></path>
            <path d="M8480 1702 c0 -15 5 -20 15 -16 31 12 13 -6 -25 -26 -48 -24 -68 -27 -50 -5 11 13 9 15 -13 15 -36 0 -51 -25 -52 -84 l0 -51 42 -3 c47 -3 149 29 189 60 18 15 24 29 24 58 0 47 -17 62 -80 68 -46 4 -50 3 -50 -16z"></path>
            <path d="M5743 1661 c-34 -17 -44 -41 -18 -41 8 0 15 -8 15 -17 0 -33 -43 -498 -46 -502 -2 -2 -12 3 -21 11 -10 9 -46 19 -80 23 -44 5 -63 11 -63 21 0 8 -7 14 -15 14 -11 0 -15 -13 -15 -54 l0 -55 81 -7 c51 -4 88 -13 101 -23 20 -17 20 -18 4 -171 -20 -180 -21 -187 -47 -200 -23 -13 -26 -40 -4 -40 8 0 15 -3 15 -7 0 -5 -9 -100 -20 -213 -20 -199 -20 -205 -2 -229 10 -14 33 -31 50 -38 l32 -13 0 58 c0 32 29 363 65 736 36 372 65 697 65 721 0 44 0 45 -32 44 -18 -1 -48 -9 -65 -18z"></path>
            <path d="M7160 1625 c0 -8 6 -15 13 -15 6 0 20 -14 29 -30 l17 -30 -33 0 c-18 0 -61 3 -95 6 -50 6 -59 9 -50 20 9 11 6 14 -13 14 -36 0 -48 -18 -48 -72 l0 -48 355 0 355 0 0 34 0 34 -177 4 c-98 3 -185 8 -195 12 -9 4 -22 21 -28 37 -16 37 -37 49 -89 49 -30 0 -41 -4 -41 -15z"></path>
            <path d="M8010 1506 c0 -8 8 -16 18 -18 12 -2 6 -10 -23 -28 -22 -13 -70 -53 -107 -89 -44 -42 -68 -58 -68 -48 0 10 -6 17 -14 17 -10 0 -17 -16 -21 -47 -11 -76 -42 -205 -64 -264 -25 -64 -29 -128 -7 -110 11 9 14 1 19 -41 9 -71 58 -167 113 -223 25 -25 50 -45 55 -45 20 0 8 65 -20 109 -79 125 -80 302 -3 445 55 101 183 213 310 270 37 17 42 23 42 53 l0 33 -115 0 c-93 0 -115 -3 -115 -14z"></path>
            <path d="M2470 1211 c0 -47 12 -68 23 -38 6 15 5 16 56 -73 51 -87 78 -120 101 -120 9 0 21 -5 28 -12 9 -9 12 -5 11 18 0 18 -28 76 -72 149 -70 116 -74 120 -110 123 l-37 3 0 -50z"></path>
            <path d="M8718 1157 c-24 -9 -28 -17 -28 -49 0 -56 22 -61 207 -53 l152 7 -23 37 -23 36 -109 6 c-60 3 -103 6 -96 7 6 1 12 7 12 12 0 13 -57 11 -92 -3z"></path>
            <path d="M7050 1110 c0 -5 5 -10 10 -10 19 0 10 -29 -16 -49 -31 -25 -86 -27 -108 -6 -22 22 -26 19 -26 -20 0 -58 26 -75 116 -75 41 0 84 4 94 10 31 16 60 74 60 119 l0 41 -65 0 c-37 0 -65 -4 -65 -10z"></path>
            <path d="M8460 1063 c-8 -3 -41 -17 -72 -31 -56 -24 -58 -26 -58 -63 0 -29 5 -41 22 -50 27 -14 133 -6 155 13 22 18 43 71 43 108 0 28 -2 30 -37 29 -21 0 -45 -3 -53 -6z"></path>
            <path d="M1847 966 c-38 -77 -50 -140 -23 -117 12 10 14 -1 9 -83 -5 -84 -4 -99 12 -116 10 -11 26 -20 35 -20 9 0 21 -5 28 -12 9 -9 12 0 12 43 0 29 7 117 15 194 20 195 21 185 -18 185 -32 0 -36 -4 -70 -74z"></path>
            <path d="M3890 791 c0 -5 5 -11 11 -13 9 -3 7 -49 -5 -172 -16 -155 -16 -169 -1 -192 9 -14 24 -27 33 -30 9 -3 25 -9 34 -14 15 -8 17 -2 17 53 0 34 5 105 10 157 6 52 11 123 11 158 l0 62 -55 0 c-30 0 -55 -4 -55 -9z"></path>
            <path d="M4830 691 c0 -5 4 -11 10 -13 6 -2 4 -62 -6 -170 -19 -188 -16 -202 45 -225 29 -10 31 -10 31 10 0 12 7 85 15 162 8 77 15 164 15 193 l0 52 -55 0 c-30 0 -55 -4 -55 -9z"></path>
        </g>
    </g>
    <g fill="rgb(152,4,30)" style="transform: none;">
        <g>
            <path d="M3455 744 c-42 -10 -81 -29 -123 -57 -32 -21 -42 -34 -40 -50 3 -19 9 -22 48 -21 25 1 72 5 105 9 54 7 68 4 125 -21 79 -33 182 -40 188 -12 5 25 -63 94 -121 122 -51 24 -142 39 -182 30z"></path>
        </g>
    </g>
    <g fill="rgb(196,17,47)" style="transform: none;">
        <g>
            <path d="M855 2866 c-205 -47 -364 -173 -447 -354 -51 -112 -77 -274 -47 -293 18 -12 136 -47 338 -103 202 -55 218 -52 241 48 24 108 57 138 152 137 78 -1 146 -19 218 -58 66 -36 100 -81 100 -134 0 -71 -52 -85 -358 -99 -354 -17 -434 -40 -543 -156 -100 -108 -139 -208 -146 -381 -11 -239 52 -403 222 -584 32 -35 53 -55 45 -44 -11 15 -7 14 15 -5 16 -14 34 -30 40 -37 18 -22 220 -112 308 -137 130 -38 202 -49 322 -49 129 0 207 17 313 69 98 48 198 149 249 250 20 41 37 73 38 72 1 -2 -4 -59 -11 -128 -7 -69 -13 -153 -13 -187 -1 -54 2 -64 22 -77 12 -7 122 -33 244 -56 210 -40 224 -42 247 -26 30 19 30 14 61 346 30 314 35 351 45 345 5 -3 39 -57 75 -120 37 -63 76 -121 85 -130 13 -12 102 -30 287 -61 284 -46 318 -50 328 -34 4 6 17 2 33 -9 20 -15 76 -26 227 -46 110 -15 223 -29 250 -31 28 -2 78 -9 113 -16 73 -14 69 6 46 -223 -20 -208 -36 -191 218 -221 106 -13 216 -23 244 -24 76 0 82 11 100 181 7 79 17 159 20 177 l5 34 82 -7 c72 -6 85 -5 106 12 23 19 24 19 46 -3 15 -15 40 -24 79 -29 66 -8 62 10 41 -190 -21 -198 -20 -200 13 -214 28 -11 352 -41 446 -41 78 0 83 9 101 186 9 82 18 163 20 180 l5 30 89 -4 c80 -4 91 -2 110 17 11 11 21 29 21 38 0 10 7 77 15 148 21 187 20 221 -7 239 -13 8 -58 17 -100 21 -73 6 -78 8 -78 30 0 41 49 471 56 488 7 20 8 20 102 18 53 -2 80 2 98 13 21 14 24 14 24 2 0 -8 -30 -320 -66 -693 -36 -373 -66 -706 -67 -740 -3 -98 -2 -98 319 -109 l211 -7 21 23 c12 13 22 28 22 33 0 24 81 851 90 922 6 44 22 197 36 340 13 143 31 329 40 414 21 221 21 233 -1 263 -20 25 -21 26 -215 34 -107 4 -227 8 -266 8 -53 1 -77 6 -90 18 -23 20 -264 42 -347 32 -229 -27 -416 -190 -472 -410 -11 -45 -65 -554 -65 -614 0 -6 -25 -10 -60 -10 -32 0 -71 -5 -84 -12 -21 -9 -29 -8 -43 4 -10 9 -43 19 -74 22 -43 6 -63 14 -83 35 l-26 27 25 229 c14 128 30 235 37 243 10 11 28 13 86 9 85 -6 116 4 131 42 6 14 17 98 26 186 8 88 17 181 19 207 4 39 1 52 -17 72 -20 22 -36 26 -167 40 -156 17 -241 11 -322 -21 -156 -61 -283 -208 -322 -374 -9 -35 -27 -187 -41 -338 -14 -151 -27 -277 -29 -279 -9 -8 -96 11 -106 23 -8 10 1 138 34 472 26 252 46 473 46 492 0 51 -28 91 -65 91 -17 0 -98 9 -179 21 -82 11 -185 24 -230 29 -45 4 -101 13 -126 19 -25 5 -143 24 -262 42 -158 24 -225 30 -243 24 -20 -8 -57 -60 -145 -205 -85 -140 -123 -195 -137 -195 -14 0 -17 7 -15 35 2 19 11 112 21 205 20 193 17 210 -38 224 -101 26 -434 82 -456 77 -42 -11 -53 -42 -67 -196 -15 -162 -28 -184 -58 -94 -24 70 -44 107 -106 195 -73 104 -167 193 -271 259 -76 48 -96 56 -153 61 -36 4 -110 19 -165 34 -123 33 -341 44 -440 21z m390 -96 c439 -104 714 -391 715 -745 0 -209 -102 -371 -293 -465 -108 -53 -196 -69 -447 -80 -221 -10 -270 -19 -306 -55 -21 -21 -24 -33 -24 -101 0 -90 17 -126 79 -167 68 -45 150 -67 252 -67 113 0 145 16 183 92 14 29 26 58 26 65 0 7 1 13 3 13 24 -4 429 -108 432 -112 3 -3 -6 -38 -21 -79 -102 -287 -362 -425 -683 -364 -210 40 -381 125 -512 255 -138 136 -210 295 -211 465 -1 185 90 367 221 438 74 41 161 55 396 67 302 15 384 31 419 81 20 29 22 146 3 192 -15 36 -79 97 -127 122 -55 28 -180 55 -258 55 -127 0 -185 -42 -213 -155 -7 -28 -16 -54 -20 -58 -7 -9 -408 98 -423 113 -14 14 13 108 57 200 88 185 259 299 481 319 80 7 154 -1 271 -29z m1193 -316 l102 -18 0 -30 c0 -17 -9 -122 -21 -235 l-21 -204 30 -41 c24 -32 37 -42 64 -44 l35 -3 147 246 c141 235 149 247 175 242 14 -3 109 -18 211 -33 102 -15 188 -30 191 -33 4 -3 -101 -179 -232 -390 -212 -341 -239 -389 -239 -425 1 -36 20 -68 169 -286 93 -135 168 -246 167 -247 -2 -2 -407 62 -458 73 -22 4 -45 37 -138 195 -109 183 -113 189 -144 189 l-33 0 -38 -396 c-22 -217 -42 -399 -45 -404 -3 -5 -90 8 -195 28 -167 33 -190 40 -193 57 -1 11 36 423 83 914 47 492 85 896 85 897 0 1 44 -7 98 -17 53 -10 143 -26 200 -35z m1266 -200 c105 -14 195 -29 200 -34 5 -5 -16 -261 -49 -607 -67 -705 -70 -731 -76 -737 -2 -2 -94 8 -204 23 -198 27 -200 27 -203 52 -3 26 115 1294 123 1317 5 15 -15 16 209 -14z m-299 -81 c-6 -34 -105 -1072 -105 -1102 0 -30 -30 -27 -61 7 -32 34 -285 403 -282 412 2 8 311 505 358 575 18 28 45 69 59 93 31 49 37 52 31 15z m1303 -7 c68 -8 124 -16 126 -17 4 -6 -32 -348 -38 -364 -3 -10 -23 -12 -83 -9 -93 6 -123 -6 -140 -57 -14 -42 -66 -542 -61 -590 l3 -34 98 -9 c113 -10 104 10 82 -181 -8 -71 -15 -132 -15 -133 0 -2 -47 -1 -105 3 -58 4 -105 6 -105 4 0 -40 -42 -385 -48 -391 -7 -6 -388 35 -397 44 -2 2 2 64 10 138 8 74 15 165 15 202 l0 66 -72 9 -73 8 -3 40 c-1 22 4 90 10 150 l13 110 82 -4 81 -3 6 43 c3 24 17 166 31 315 16 180 32 293 45 336 24 78 81 169 140 222 62 56 180 107 265 115 6 0 65 -6 133 -13z m1027 -82 l41 -6 -17 -174 c-9 -96 -20 -181 -23 -189 -4 -12 -24 -15 -88 -15 -95 0 -121 -12 -137 -63 -11 -34 -61 -503 -61 -573 l0 -41 46 -7 c26 -3 69 -6 96 -6 32 0 50 -5 54 -14 6 -17 -22 -285 -31 -295 -4 -3 -51 -4 -105 -2 l-98 3 -6 -44 c-3 -23 -13 -110 -22 -193 -8 -82 -18 -153 -22 -157 -4 -3 -96 1 -206 10 l-199 16 7 65 c24 258 29 331 22 338 -4 4 -38 10 -77 14 -38 3 -72 8 -74 11 -5 4 8 161 21 256 l5 42 85 0 c60 0 84 3 84 13 0 59 54 595 65 640 37 146 133 270 259 332 39 20 91 40 116 45 43 8 179 5 265 -6z m508 -50 c104 -6 107 -7 107 -29 0 -13 -29 -329 -65 -702 -36 -373 -75 -777 -86 -898 -12 -129 -26 -225 -33 -233 -9 -9 -53 -10 -206 -2 -107 6 -198 14 -203 19 -11 11 162 1831 176 1849 9 11 33 13 107 8 52 -3 143 -8 203 -12z m-4273 -474 c-10 -96 -21 -210 -25 -252 -7 -76 -7 -78 -33 -78 -15 0 -128 25 -250 55 -123 30 -234 55 -246 55 -30 0 -52 -26 -72 -82 -23 -70 -54 -93 -122 -93 -77 0 -138 21 -188 64 -22 20 -50 44 -62 53 -46 37 -18 92 55 109 21 5 135 13 253 19 239 10 330 27 437 81 85 43 186 128 230 194 20 31 37 54 38 53 2 -2 -5 -82 -15 -178z"></path>
            <path d="M8385 2134 c-247 -44 -407 -156 -503 -351 -35 -71 -53 -69 -92 6 -64 127 -139 216 -235 277 -33 21 -108 30 -341 40 -133 6 -160 4 -235 -15 -137 -34 -240 -92 -340 -191 -95 -94 -146 -175 -191 -304 -75 -210 -78 -491 -8 -691 26 -74 88 -181 129 -219 17 -16 28 -33 26 -37 -8 -11 46 -46 138 -89 188 -88 392 -101 579 -36 94 33 168 79 242 151 152 149 238 344 274 623 l17 133 -22 38 c-26 45 -22 54 15 35 20 -10 72 -14 202 -14 l175 -1 -70 -37 c-142 -75 -232 -157 -287 -258 -79 -145 -78 -392 2 -503 12 -18 23 -37 24 -44 4 -25 20 -39 89 -74 129 -65 170 -75 318 -80 151 -6 232 4 350 43 193 63 332 198 395 384 29 88 31 131 4 155 -18 16 -33 17 -143 11 -117 -6 -178 1 -176 21 0 5 46 30 102 57 83 40 115 62 172 120 117 118 161 240 152 426 -5 122 -20 169 -82 260 -69 103 -105 132 -172 141 -32 4 -89 15 -128 23 -87 19 -271 19 -380 0z m369 -80 c136 -35 223 -96 273 -191 42 -78 57 -163 43 -248 -38 -239 -167 -352 -555 -485 -172 -60 -198 -72 -219 -102 -25 -36 -21 -104 9 -133 21 -22 33 -25 96 -25 94 0 132 18 160 78 13 26 27 50 33 54 6 4 96 8 199 8 l188 0 -6 -22 c-21 -76 -83 -177 -144 -238 -188 -187 -538 -245 -769 -128 -203 102 -256 350 -121 560 73 113 207 197 459 288 230 83 240 90 240 179 0 92 -16 105 -132 109 -118 4 -148 -11 -184 -96 -14 -31 -29 -64 -33 -72 -7 -12 -43 -15 -210 -18 l-201 -2 30 82 c85 234 239 360 490 403 109 19 280 18 354 -1z m-1469 -28 c164 -25 264 -74 354 -172 27 -30 61 -78 75 -107 32 -69 52 -145 39 -158 -5 -5 -90 -7 -216 -2 l-208 6 -15 33 c-23 47 -66 64 -166 64 -69 0 -93 -4 -129 -23 -58 -31 -99 -106 -99 -182 l0 -53 123 -6 c67 -3 256 -9 420 -12 l299 -6 -7 -52 c-51 -411 -209 -657 -493 -764 -58 -22 -83 -26 -192 -26 -97 -1 -137 3 -180 18 -161 55 -280 156 -348 296 -64 131 -77 191 -76 360 0 123 5 160 26 241 57 210 166 364 328 459 90 53 232 93 350 99 14 0 66 -5 115 -13z m1284 -361 c13 -13 12 -17 -3 -34 -23 -25 -151 -75 -172 -67 -34 13 27 112 74 119 39 7 85 -1 101 -18z m-1340 -65 c10 -5 24 -23 31 -39 6 -16 19 -33 28 -37 10 -4 98 -10 197 -14 164 -6 150 -7 -147 -8 -289 -2 -328 0 -328 13 0 24 30 64 59 80 30 16 134 20 160 5z m1280 -587 c-16 -42 -36 -60 -75 -67 -33 -7 -74 6 -74 23 0 9 126 67 152 70 4 1 3 -11 -3 -26z"></path>
            <path d="M6843 1095 c10 -138 61 -195 173 -195 104 0 149 27 190 115 16 33 24 68 24 103 l0 52 -196 0 -197 0 6 -75z m304 -9 c9 -9 -9 -46 -37 -75 -23 -26 -36 -31 -73 -31 -62 0 -75 7 -97 51 -37 71 -35 73 92 66 61 -4 113 -9 115 -11z"></path>
            <path d="M3445 741 c-84 -21 -177 -94 -205 -162 -19 -45 2 -83 49 -87 19 -2 37 0 40 5 13 18 82 42 138 49 57 6 61 5 96 -26 30 -26 43 -31 74 -28 35 3 39 0 56 -34 18 -36 21 -38 64 -38 l46 0 -6 54 c-9 94 -52 170 -122 219 -25 17 -23 13 13 -26 68 -75 39 -85 -87 -32 -59 25 -73 27 -150 22 -47 -3 -95 -7 -105 -9 -10 -2 -21 3 -23 10 -3 7 20 24 59 42 51 24 77 30 138 31 67 1 71 2 35 10 -48 9 -70 9 -110 0z"></path>
        </g>
    </g>
    <g fill="rgb(222,25,53)" style="transform: none;">
        <g>
            <path d="M3250 598 c-49 -81 -47 -205 5 -294 73 -124 234 -174 365 -113 76 36 115 71 145 134 29 59 51 206 23 155 -20 -38 -45 -37 -61 2 -8 18 -26 44 -40 56 -25 24 -25 24 -45 4 -15 -15 -23 -17 -31 -9 -8 8 -11 3 -11 -17 0 -19 6 -29 20 -33 35 -9 51 -47 44 -108 -6 -46 -4 -56 10 -61 16 -6 16 -8 0 -25 -23 -25 -104 -66 -148 -74 -69 -13 -168 41 -223 121 -13 18 -23 35 -23 38 0 4 31 6 68 6 63 0 70 2 80 24 10 24 61 46 104 46 38 0 48 12 48 55 0 23 -6 47 -12 53 -7 6 -47 13 -88 15 -61 5 -83 2 -125 -16 -27 -11 -53 -25 -56 -30 -4 -5 -16 5 -29 22 -21 30 -21 33 -6 56 9 14 14 25 11 25 -3 0 -14 -15 -25 -32z"></path>
        </g>
    </g>
    <g fill="rgb(231,89,84)" style="transform: none;">
        <g>
            <path d="M3246 538 c-24 -33 -21 -124 5 -173 57 -109 153 -165 284 -165 86 0 141 23 179 74 32 42 43 78 22 70 -35 -13 -44 1 -33 53 9 45 8 52 -13 81 -13 18 -29 32 -36 32 -7 0 -26 12 -43 26 l-31 26 0 -35 c0 -19 -6 -40 -14 -46 -10 -9 -104 -30 -133 -31 -2 0 -4 -10 -4 -22 -1 -17 -2 -19 -6 -5 -6 21 -19 22 -31 1 -6 -11 -20 -14 -48 -12 l-39 3 -9 55 c-4 30 -14 63 -21 73 -12 18 -14 17 -29 -5z"></path>
        </g>
    </g>
    <g fill="rgb(221,243,254)" style="transform: none;">
        <g>
            <path d="M910 2820 c-140 -13 -243 -61 -341 -159 -108 -108 -181 -285 -150 -363 9 -25 16 -28 54 -28 50 0 67 14 93 75 65 157 193 266 362 310 71 19 216 19 307 1 79 -16 223 -59 255 -76 11 -6 38 -10 58 -8 34 3 37 5 40 38 2 24 -3 41 -15 52 -48 45 -64 58 -70 58 -3 0 -36 12 -71 26 -162 65 -346 91 -522 74z"></path>
            <path d="M2111 2493 c-14 -50 -164 -1640 -162 -1722 0 -76 12 -93 60 -89 56 5 61 23 91 363 5 61 14 155 19 210 31 308 42 421 51 520 35 382 52 533 62 558 10 26 15 28 47 23 96 -15 211 -18 226 -6 20 16 20 93 1 110 -26 21 -262 70 -338 70 -46 0 -47 -1 -57 -37z"></path>
            <path d="M2744 2155 c-81 -134 -150 -242 -154 -240 -15 9 -40 -45 -40 -87 0 -65 21 -88 80 -88 38 0 54 5 70 22 19 21 98 148 220 353 73 123 70 121 190 102 133 -23 175 -22 200 3 29 29 28 95 -2 114 -23 14 -322 66 -383 66 -34 0 -35 -2 -181 -245z"></path>
            <path d="M3472 2308 c-15 -19 -142 -1360 -129 -1375 5 -7 31 -13 58 -13 81 0 72 -41 134 615 19 204 39 411 44 460 4 50 13 101 20 113 12 22 16 23 69 15 85 -12 229 -10 243 4 6 6 13 31 16 55 8 73 1 76 -202 103 -99 13 -194 27 -211 30 -19 3 -35 1 -42 -7z"></path>
            <path d="M4491 2199 c-65 -13 -162 -61 -211 -105 -59 -53 -116 -144 -140 -222 -13 -43 -29 -156 -45 -336 -14 -149 -28 -290 -31 -313 l-5 -41 -82 1 -82 2 -13 -110 c-6 -60 -11 -132 -10 -160 l3 -50 54 -3 c62 -4 67 1 76 69 10 69 23 83 79 80 50 -2 80 10 95 38 11 19 20 103 46 401 19 207 36 296 71 368 35 72 116 152 189 187 53 27 73 30 186 35 143 6 159 13 159 69 0 77 0 77 -118 89 -120 13 -158 14 -221 1z"></path>
            <path d="M1459 2178 c-1 -7 -1 -35 1 -61 5 -117 -54 -138 -435 -157 -235 -12 -322 -26 -396 -67 -91 -49 -171 -164 -206 -294 -20 -76 -22 -252 -4 -319 21 -80 29 -90 77 -90 l42 0 7 88 c15 211 53 321 137 399 90 82 121 90 433 108 267 16 351 30 415 70 56 35 73 74 77 175 4 70 1 91 -15 120 -18 33 -23 35 -76 38 -40 2 -56 -1 -57 -10z"></path>
            <path d="M5440 2120 c-176 -37 -328 -190 -375 -377 -11 -45 -65 -581 -65 -640 0 -9 -23 -13 -80 -13 -97 0 -92 9 -109 -178 -14 -154 -11 -162 53 -162 59 0 83 21 92 78 9 65 25 79 95 87 80 9 89 24 100 162 28 355 45 508 63 568 20 67 75 156 121 197 93 83 163 108 309 111 93 2 109 5 122 21 18 25 19 120 1 134 -17 14 -271 23 -327 12z"></path>
            <path d="M8370 2085 c-215 -37 -372 -147 -455 -318 -55 -115 -43 -177 34 -177 50 0 67 14 125 104 80 124 164 183 323 228 87 24 260 30 431 14 l92 -9 0 37 c0 50 -38 83 -127 113 -58 19 -89 22 -208 22 -77 -1 -174 -7 -215 -14z"></path>
            <path d="M5923 2063 c-21 -15 -33 -62 -43 -176 -6 -62 -15 -159 -21 -217 -5 -58 -14 -154 -20 -215 -22 -236 -28 -304 -38 -405 -18 -185 -32 -323 -41 -415 -5 -49 -14 -161 -21 -247 -14 -181 -12 -188 56 -188 40 0 44 2 54 33 5 17 12 59 15 92 4 33 22 222 41 420 62 642 66 679 76 770 6 50 14 143 19 209 11 134 24 186 48 187 9 0 68 0 130 -1 141 -2 162 8 162 75 0 71 -16 77 -228 82 -97 2 -182 1 -189 -4z"></path>
            <path d="M7054 2060 c-80 -11 -198 -51 -264 -90 -162 -96 -273 -251 -327 -459 -51 -197 -39 -519 22 -563 6 -4 24 -8 42 -8 27 0 32 4 38 30 4 17 4 68 0 113 -8 105 16 271 55 379 81 220 234 364 446 418 123 32 235 26 386 -21 37 -11 86 -19 110 -17 41 3 43 4 46 38 9 124 -274 216 -554 180z"></path>
            <path d="M8620 1640 c-11 -11 -20 -24 -20 -30 0 -17 -84 -58 -230 -110 -203 -73 -310 -130 -391 -210 -95 -94 -121 -153 -127 -290 -5 -130 3 -153 55 -148 35 3 36 4 63 83 39 116 44 126 85 175 78 94 180 154 390 231 222 80 266 107 283 168 13 48 8 131 -8 141 -26 17 -79 11 -100 -10z"></path>
            <path d="M6921 1441 c-15 -15 -21 -34 -21 -63 0 -90 -3 -90 440 -96 376 -5 377 -5 399 17 15 15 21 33 21 64 -1 76 6 74 -280 81 -140 3 -319 9 -397 12 -134 6 -142 5 -162 -15z"></path>
            <path d="M1405 1262 c-5 -4 -21 -28 -34 -55 -32 -63 -72 -87 -148 -87 -33 0 -82 7 -109 15 -51 15 -121 20 -148 9 -11 -4 -16 -19 -16 -50 0 -42 3 -46 48 -75 73 -46 142 -63 262 -63 96 0 110 2 151 26 24 14 59 47 77 72 38 53 45 54 152 26 98 -26 181 -26 203 -2 22 24 22 74 0 101 -38 44 -398 113 -438 83z"></path>
            <path d="M7213 1138 c-5 -7 -15 -31 -21 -54 -15 -50 -48 -100 -85 -128 -30 -22 -97 -26 -165 -11 -45 10 -62 -7 -62 -61 0 -79 60 -114 197 -114 109 0 159 21 205 87 56 83 89 248 56 281 -16 16 -113 16 -125 0z"></path>
            <path d="M4496 1099 c-21 -36 -17 -102 8 -128 25 -25 161 -29 186 -6 24 21 28 116 7 133 -9 8 -148 32 -182 32 0 0 -9 -14 -19 -31z"></path>
            <path d="M5473 1035 c-31 -13 -33 -17 -33 -68 0 -72 13 -82 102 -82 61 0 72 3 89 24 40 49 11 131 -47 131 -12 0 -34 2 -50 5 -16 3 -44 -2 -61 -10z"></path>
            <path d="M8564 1032 c-6 -4 -20 -28 -33 -54 -35 -74 -84 -89 -207 -63 -26 6 -34 3 -48 -16 -21 -30 -20 -77 2 -113 13 -21 31 -32 67 -42 120 -31 223 -10 295 61 l47 47 104 4 c57 3 114 7 127 10 48 10 80 114 48 157 -12 15 -34 17 -202 17 -104 0 -194 -4 -200 -8z"></path>
            <path d="M4030 778 c-13 -31 -37 -278 -30 -309 5 -21 11 -24 55 -24 64 0 70 12 86 177 15 161 10 178 -56 178 -38 0 -47 -4 -55 -22z"></path>
            <path d="M4967 733 c-3 -5 -12 -85 -22 -179 -20 -199 -17 -214 43 -214 31 0 59 11 91 36 4 3 14 92 27 239 6 62 4 73 -16 98 -18 23 -29 27 -70 27 -27 0 -51 -3 -53 -7z"></path>
        </g>
    </g>
    <g fill="rgb(238,249,255)" style="transform: none;">
        <g>
            <path d="M944 2830 c-227 -25 -393 -135 -482 -320 -33 -69 -72 -203 -72 -249 0 -14 57 -31 105 -31 52 0 69 18 118 123 51 109 118 177 226 230 71 34 97 41 163 45 111 6 328 -32 428 -75 127 -55 210 -101 240 -133 3 -3 26 -22 51 -43 41 -33 52 -37 103 -37 l56 0 0 43 c0 35 -7 51 -40 92 -129 158 -346 279 -600 333 -120 26 -206 32 -296 22z m302 -65 c51 -13 120 -35 155 -50 35 -15 69 -27 76 -27 7 -1 10 -5 8 -9 -3 -3 8 -12 23 -18 33 -14 57 -47 41 -57 -6 -4 -14 -3 -18 2 -3 5 -13 11 -21 13 -8 2 -51 14 -95 28 -136 42 -213 55 -340 54 -133 -1 -199 -14 -298 -61 -98 -46 -194 -152 -241 -265 -32 -75 -69 -96 -87 -48 -13 36 20 145 67 218 19 30 31 55 27 55 -17 0 58 66 120 107 97 63 132 74 254 81 146 10 221 4 329 -23z"></path>
            <path d="M2110 2537 c0 -2 -34 -356 -75 -787 -42 -443 -72 -804 -68 -827 3 -25 1 -48 -5 -56 -17 -20 -34 -210 -20 -219 23 -14 106 -20 127 -9 43 23 39 -4 101 656 41 448 49 528 61 630 6 50 14 138 19 197 5 58 14 125 20 148 l11 42 57 -8 c31 -5 88 -9 126 -9 59 1 71 4 87 24 19 24 27 114 11 137 -10 17 -452 96 -452 81z m246 -63 c6 -7 30 -16 53 -20 56 -9 90 -36 75 -61 -15 -25 -63 -27 -151 -8 -88 20 -117 15 -131 -22 -10 -25 -27 -178 -62 -558 -9 -99 -20 -212 -51 -520 -5 -55 -14 -149 -19 -210 -25 -280 -35 -345 -58 -359 -40 -24 -40 89 -2 449 5 50 14 142 20 205 6 63 15 162 21 220 5 58 12 139 15 180 3 41 9 89 13 105 5 17 9 68 10 115 1 47 6 101 10 120 5 19 12 80 16 135 11 175 15 209 27 233 12 23 15 23 108 17 61 -5 99 -12 106 -21z"></path>
            <path d="M2867 2358 c-19 -29 -45 -73 -58 -98 -13 -25 -27 -47 -30 -50 -12 -11 -109 -179 -109 -189 0 -6 -3 -11 -7 -11 -5 0 -21 -23 -37 -52 l-29 -51 -18 22 c-14 17 -27 22 -56 19 l-38 -3 -3 -57 c-2 -45 3 -69 23 -112 32 -67 73 -96 137 -96 57 0 86 22 129 98 18 31 36 59 41 60 4 2 8 8 8 14 0 13 132 232 142 236 4 2 8 9 8 16 0 6 13 27 29 46 l28 34 85 -12 c92 -13 160 -15 196 -6 32 9 72 82 72 131 l0 41 -67 7 c-36 4 -74 9 -82 12 -9 2 4 -13 28 -35 37 -34 42 -42 32 -60 -17 -31 -41 -34 -138 -17 -127 22 -175 20 -200 -7 -18 -20 -98 -148 -229 -368 -60 -101 -97 -123 -128 -78 -21 29 -20 48 4 78 11 14 20 30 20 37 0 6 32 62 70 125 39 62 73 120 77 128 3 8 24 41 45 72 21 31 38 61 38 66 0 6 13 24 29 41 29 31 30 31 133 32 l103 1 -75 14 c-41 7 -90 16 -107 19 -31 5 -35 3 -66 -47z"></path>
            <path d="M3500 2303 c0 -16 68 -25 160 -21 l75 3 -117 15 c-91 12 -118 13 -118 3z"></path>
            <path d="M3862 2238 c28 -26 36 -40 31 -57 -10 -37 -46 -45 -153 -32 -138 16 -157 15 -171 -11 -7 -13 -16 -63 -20 -113 -25 -271 -80 -844 -90 -930 -11 -104 -27 -145 -57 -145 -32 0 -42 22 -42 94 0 38 -2 67 -5 64 -4 -3 -10 -48 -16 -99 -8 -84 -8 -95 8 -106 20 -15 107 -17 133 -3 26 14 36 71 65 395 52 574 72 748 87 778 8 15 20 16 122 11 62 -4 124 -4 138 -1 29 8 43 38 53 108 7 55 -1 64 -70 75 l-50 7 37 -35z"></path>
            <path d="M1441 2229 c-8 -22 17 -109 31 -109 4 0 10 9 13 21 11 33 54 21 77 -21 15 -27 18 -48 15 -91 -6 -72 -28 -113 -77 -144 -64 -40 -148 -54 -415 -70 -312 -18 -343 -26 -433 -108 -84 -78 -122 -188 -137 -399 -7 -97 -17 -108 -51 -55 -25 38 -42 117 -43 198 -1 59 22 178 36 188 5 3 17 28 27 55 12 31 40 70 80 110 78 80 140 104 291 117 61 6 155 14 210 20 55 6 138 14 185 18 47 4 102 15 123 24 41 18 51 32 12 17 -47 -18 -150 -29 -360 -40 -286 -14 -368 -33 -455 -107 -42 -35 -103 -129 -129 -198 -60 -159 -41 -399 43 -551 28 -50 38 -59 63 -62 66 -7 77 43 42 186 -24 99 -26 147 -9 229 24 112 90 209 178 258 42 24 60 27 182 31 348 12 535 36 592 75 14 11 30 19 35 19 13 0 52 63 63 101 6 19 10 68 10 109 0 80 -14 115 -68 173 -21 22 -34 27 -74 27 -41 0 -50 -4 -57 -21z"></path>
            <path d="M4773 2173 c8 -10 18 -30 22 -45 6 -21 2 -30 -20 -44 -21 -14 -39 -16 -98 -11 -151 13 -285 -46 -372 -164 -67 -91 -93 -195 -110 -439 -3 -47 -10 -121 -15 -165 -5 -44 -12 -111 -16 -149 -8 -91 -30 -116 -96 -109 -59 7 -83 -15 -93 -84 -8 -63 -17 -76 -46 -71 -23 3 -24 6 -27 112 -4 142 4 156 87 156 71 0 92 18 90 76 l-1 39 -10 -48 -10 -48 -57 6 c-31 4 -63 9 -72 11 -9 2 -21 -1 -27 -8 -5 -7 -17 -89 -26 -182 -14 -138 -14 -171 -4 -178 7 -4 41 -8 76 -8 48 0 64 -4 69 -16 3 -9 -2 -101 -12 -205 -10 -104 -15 -192 -11 -196 4 -4 37 -9 74 -11 80 -5 87 1 102 78 18 93 24 305 11 338 -15 35 -48 52 -102 52 -41 0 -41 0 -34 32 16 70 20 75 76 81 37 5 60 14 77 30 27 27 30 45 62 407 21 240 32 305 63 370 26 53 26 53 72 107 44 51 123 97 190 110 28 6 88 9 135 6 78 -4 87 -2 112 19 22 19 28 34 33 89 7 64 6 66 -16 72 -13 4 -39 7 -58 7 -32 0 -33 -1 -18 -17z m-663 -1422 c12 -24 -5 -212 -24 -251 -15 -32 -48 -33 -56 -2 -3 13 -2 70 1 126 5 79 11 108 25 125 23 26 40 27 54 2z"></path>
            <path d="M5440 2120 c-174 -37 -326 -188 -374 -373 -20 -78 -32 -237 -17 -237 6 0 11 6 11 13 0 6 5 57 10 112 16 160 44 227 136 325 114 121 242 164 424 143 95 -11 120 -22 120 -57 0 -51 -19 -59 -136 -61 -113 -3 -182 -20 -247 -64 -60 -39 -117 -105 -151 -171 -46 -93 -60 -185 -95 -638 -11 -144 -20 -158 -100 -167 -70 -8 -86 -22 -95 -88 -6 -35 -14 -52 -33 -64 -35 -23 -57 -7 -64 48 l-5 44 -12 -28 c-7 -16 -12 -50 -12 -76 0 -55 8 -60 90 -61 62 0 74 -10 67 -55 -8 -46 11 -43 27 5 14 44 49 48 79 9 18 -25 18 -33 8 -91 -6 -36 -11 -82 -11 -104 0 -59 -9 -79 -40 -97 -36 -22 -37 -21 -51 6 -8 14 -12 57 -10 117 1 52 0 92 -3 89 -8 -8 -35 -282 -29 -291 2 -5 35 -8 72 -8 107 0 117 20 127 254 7 151 7 152 -17 180 -19 21 -36 29 -73 33 -42 5 -47 8 -42 27 3 12 6 26 6 33 0 22 31 43 63 43 49 0 94 33 106 77 10 35 20 130 51 478 13 141 30 216 65 285 30 59 110 145 145 155 14 4 36 14 49 22 16 10 68 18 155 24 72 4 132 8 133 9 11 2 33 76 35 120 3 49 1 55 -22 66 -32 16 -281 26 -340 14z"></path>
            <path d="M8650 2091 c0 -5 15 -13 33 -16 17 -4 37 -11 42 -15 6 -5 31 -14 56 -20 45 -11 118 -65 105 -77 -3 -3 -45 -1 -93 6 -129 17 -168 18 -268 9 -162 -15 -292 -61 -384 -136 -24 -20 -68 -73 -97 -118 -62 -97 -86 -114 -116 -88 -15 14 -18 26 -14 49 8 36 59 138 93 182 13 17 20 34 14 37 -11 7 -51 -39 -86 -99 -30 -50 -85 -197 -85 -226 0 -26 36 -39 108 -39 68 0 116 25 126 65 17 68 111 179 189 223 50 28 154 58 250 72 138 20 306 -8 389 -65 39 -27 71 -31 112 -15 23 8 26 15 26 55 0 41 -5 51 -48 94 -53 53 -125 91 -218 115 -69 18 -134 21 -134 7z"></path>
            <path d="M5904 2069 c-6 -8 -51 -433 -101 -949 -101 -1057 -101 -970 -7 -970 116 0 108 -31 164 580 11 124 29 313 40 420 11 107 29 290 40 405 11 116 23 224 26 241 8 52 25 59 145 59 93 0 111 3 136 21 24 18 29 30 35 85 10 97 11 96 -90 103 -249 17 -377 19 -388 5z m382 -54 c31 -20 30 -40 -2 -61 -21 -14 -42 -16 -132 -11 -59 4 -117 4 -129 1 -33 -9 -43 -50 -58 -244 -3 -36 -7 -76 -9 -90 -2 -14 -7 -61 -11 -105 -3 -44 -13 -145 -21 -225 -8 -80 -30 -307 -49 -505 -19 -198 -37 -387 -41 -420 -10 -110 -32 -148 -63 -111 -14 17 -11 56 60 776 10 101 16 169 38 405 6 61 15 157 20 215 6 58 15 155 21 217 10 114 22 161 43 176 7 5 79 6 161 3 111 -4 154 -9 172 -21z"></path>
            <path d="M7054 2060 c-80 -11 -198 -51 -264 -90 -162 -95 -271 -249 -328 -459 -23 -85 -26 -115 -26 -271 -1 -203 9 -256 76 -390 l43 -85 45 0 45 0 3 43 c2 23 -7 82 -19 130 -43 174 -41 291 10 487 64 243 260 412 512 443 78 10 195 1 257 -19 20 -6 74 -31 119 -55 57 -30 95 -44 122 -44 44 0 51 10 51 69 0 33 -7 45 -52 88 -66 61 -124 96 -208 122 -119 37 -254 48 -386 31z m333 -49 c35 -11 77 -28 95 -37 42 -21 100 -86 88 -98 -9 -9 -26 -5 -140 29 -86 26 -281 31 -374 11 -220 -50 -383 -198 -466 -425 -39 -105 -64 -280 -57 -396 2 -49 2 -98 -2 -107 -16 -45 -56 40 -66 142 -31 325 62 603 254 757 77 62 202 121 292 138 104 20 294 13 376 -14z"></path>
            <path d="M8143 2010 c-60 -35 -76 -53 -40 -46 27 5 69 29 101 58 32 29 -2 22 -61 -12z"></path>
            <path d="M8615 1724 c-11 -11 -14 -26 -9 -49 14 -75 -15 -96 -236 -175 -251 -91 -386 -175 -459 -288 -90 -141 -104 -333 -33 -472 26 -53 29 -55 71 -58 24 -2 49 2 55 8 7 7 11 57 11 133 0 131 8 159 64 237 75 103 179 166 411 250 178 64 227 91 265 144 27 37 30 48 29 116 -1 87 -20 132 -64 155 -38 20 -84 19 -105 -1z m86 -123 c4 -54 -14 -99 -50 -129 -24 -20 -93 -49 -236 -101 -210 -77 -312 -137 -389 -230 -41 -49 -58 -83 -88 -181 -25 -79 -33 -89 -48 -59 -21 38 -6 179 25 242 15 28 33 59 41 68 8 8 14 20 14 27 0 14 74 77 130 109 99 57 132 73 149 73 10 0 40 9 67 19 27 11 87 34 134 51 108 39 136 55 181 102 37 39 68 43 70 9z"></path>
            <path d="M2438 1509 c-27 -15 -24 -96 5 -149 l22 -43 5 34 c5 32 11 24 115 -154 l110 -188 34 5 c45 7 53 20 48 82 -3 44 -17 75 -98 209 -116 194 -134 215 -186 215 -21 0 -46 -5 -55 -11z"></path>
            <path d="M6910 1487 c0 -7 -9 -18 -20 -25 -18 -11 -21 -21 -18 -84 3 -64 6 -73 31 -91 31 -24 127 -32 532 -42 284 -7 322 -1 342 55 13 39 16 109 5 126 -5 8 -97 14 -292 18 -157 3 -342 9 -412 12 -117 6 -128 8 -128 25 0 12 -7 19 -20 19 -11 0 -20 -6 -20 -13z m526 -67 c248 0 254 0 274 -22 26 -28 25 -43 -1 -69 -22 -22 -24 -22 -369 -17 -250 4 -354 9 -371 18 -45 24 -50 49 -18 81 21 21 28 21 127 15 58 -3 219 -6 358 -6z"></path>
            <path d="M2832 1458 c-7 -7 -12 -37 -12 -68 0 -52 4 -62 58 -141 152 -221 198 -285 212 -296 9 -8 37 -12 70 -10 l55 2 3 40 c2 37 -9 57 -148 260 -148 215 -152 220 -188 223 -20 2 -43 -3 -50 -10z"></path>
            <path d="M5030 1433 c0 -5 -7 -73 -15 -153 -8 -80 -15 -156 -15 -169 0 -24 -1 -24 -73 -18 -41 3 -79 2 -85 -2 -7 -4 -14 -29 -17 -57 -3 -27 -8 -61 -10 -75 -3 -17 1 -26 11 -26 10 0 14 12 14 39 0 61 23 88 77 88 62 0 99 22 107 62 9 47 19 318 12 318 -3 0 -6 -3 -6 -7z"></path>
            <path d="M1413 1293 c-7 -2 -13 -10 -13 -17 0 -30 -54 -117 -84 -136 -70 -43 -229 -16 -329 56 -49 36 -102 45 -125 22 -14 -14 -16 -87 -3 -120 5 -13 17 -31 27 -40 68 -64 98 -87 127 -98 17 -6 39 -15 48 -20 8 -4 70 -11 136 -15 162 -10 215 5 289 80 l52 54 89 -24 c100 -28 198 -32 229 -10 24 16 47 88 42 129 -3 28 -5 29 -238 87 -129 32 -235 58 -235 58 0 0 -6 -3 -12 -6z m237 -83 c41 -11 82 -22 90 -24 71 -18 102 -52 71 -80 -24 -22 -44 -20 -166 10 -59 15 -115 24 -129 20 -14 -3 -40 -27 -58 -52 -51 -71 -103 -97 -196 -97 -91 0 -168 20 -234 62 -47 30 -60 54 -35 64 6 2 82 1 167 -4 l155 -8 35 38 c19 21 47 52 62 70 27 32 28 33 95 27 38 -3 102 -15 143 -26z"></path>
            <path d="M7212 1180 c-20 -8 -22 -15 -17 -44 8 -38 -21 -114 -58 -155 -58 -63 -167 -67 -216 -7 -9 11 -22 13 -44 9 -40 -8 -47 -18 -47 -73 0 -57 26 -100 81 -137 39 -25 52 -28 149 -31 93 -3 112 -1 154 18 95 45 155 153 163 295 5 71 3 83 -17 108 -19 23 -28 27 -73 26 -29 0 -62 -4 -75 -9z m102 -82 c16 -26 -17 -142 -59 -204 -43 -65 -98 -94 -180 -94 -69 0 -141 30 -157 66 -18 39 4 54 81 54 68 0 126 15 156 40 10 8 30 41 45 73 15 31 33 64 40 73 17 19 60 14 74 -8z"></path>
            <path d="M4500 1168 c0 -7 -12 -24 -25 -37 -21 -19 -25 -32 -25 -83 0 -32 5 -68 11 -80 17 -31 71 -48 154 -48 105 0 130 27 123 136 l-3 49 -95 10 c-93 10 -95 10 -98 38 -2 19 -9 27 -23 27 -10 0 -19 -6 -19 -12z m166 -98 c36 -31 2 -90 -52 -90 -76 0 -116 41 -87 91 14 24 18 25 70 18 30 -4 61 -13 69 -19z"></path>
            <path d="M5406 1048 c-10 -14 -16 -44 -16 -84 0 -80 21 -108 91 -123 111 -24 170 -9 188 48 12 43 15 120 3 137 -4 6 -47 14 -97 17 -49 4 -91 11 -93 17 -7 19 -60 11 -76 -12z m193 -59 c17 -16 19 -24 11 -39 -14 -27 -27 -33 -71 -33 -46 0 -69 17 -69 50 0 17 8 28 31 37 37 16 70 10 98 -15z"></path>
            <path d="M8900 1030 c0 -5 6 -10 13 -10 6 0 17 -12 24 -26 10 -21 9 -32 -2 -55 -22 -41 -37 -46 -163 -52 l-113 -5 -52 -50 c-69 -65 -133 -82 -223 -60 -47 12 -63 21 -76 45 -16 27 -16 31 -2 52 11 15 23 21 35 18 11 -3 19 0 19 5 0 34 -102 54 -114 22 -14 -36 -6 -102 17 -134 36 -54 84 -73 190 -73 110 -1 146 12 218 80 l51 48 102 5 c142 7 176 36 176 151 l0 49 -50 0 c-27 0 -50 -4 -50 -10z"></path>
        </g>
    </g>
    <g fill="rgb(255,255,255)" style="transform: none;">
        <g>
            <path d="M1610 2666 c0 -3 37 -37 82 -76 137 -119 198 -220 132 -220 -22 0 -92 46 -124 80 -20 21 -86 62 -140 88 -113 52 -133 60 -220 82 -121 31 -158 35 -310 35 l-135 0 -85 -42 c-109 -53 -176 -121 -227 -230 -48 -102 -67 -123 -114 -123 -20 0 -42 7 -49 15 -17 21 -30 19 -30 -4 0 -10 8 -22 18 -26 38 -15 447 -125 464 -125 11 0 20 10 24 28 24 108 51 154 108 181 53 26 111 27 211 1 98 -25 151 -56 210 -122 26 -29 45 -48 42 -43 -9 18 12 55 31 55 21 0 60 -39 91 -90 23 -38 27 -103 11 -159 -11 -38 -50 -101 -63 -101 -5 0 -21 -8 -35 -19 -62 -43 -215 -61 -632 -75 -81 -3 -102 -7 -142 -30 -99 -57 -159 -153 -184 -297 -16 -97 -13 -147 22 -278 17 -68 17 -66 -1 -85 -23 -23 -59 -2 -81 45 -9 22 -21 39 -26 39 -5 0 8 -33 29 -72 52 -100 189 -237 297 -298 158 -89 352 -140 530 -140 117 0 203 18 284 59 138 70 228 177 282 338 37 112 37 121 3 129 -16 3 -37 8 -48 10 -16 4 -14 1 8 -16 59 -47 11 -140 -72 -140 -22 0 -42 4 -46 10 -3 5 -12 7 -20 3 -8 -3 -15 0 -15 7 0 7 -7 10 -15 7 -8 -4 -17 -2 -21 4 -3 6 -12 8 -20 5 -8 -3 -14 0 -14 5 0 7 -9 9 -21 6 -12 -3 -22 0 -26 9 -11 29 -45 12 -107 -50 -52 -53 -74 -68 -120 -81 -55 -16 -65 -16 -226 0 -8 1 -25 6 -36 13 -12 6 -24 8 -28 5 -3 -3 -6 -1 -6 6 0 7 -5 9 -10 6 -6 -3 -10 -1 -10 5 0 6 -4 9 -9 6 -11 -7 -131 99 -129 113 1 3 -3 14 -7 25 -20 45 53 69 95 31 10 -9 27 -15 37 -13 14 3 10 8 -19 26 -77 48 -105 156 -54 207 36 36 85 45 306 55 113 5 241 16 285 24 113 22 227 81 308 159 108 104 147 208 147 392 0 211 -64 369 -206 510 -48 48 -174 143 -174 131z"></path>
            <path d="M2110 2524 c0 -11 5 -14 16 -10 9 3 34 6 57 7 36 1 38 2 17 9 -46 15 -90 12 -90 -6z"></path>
            <path d="M2484 2467 c57 -37 70 -73 41 -114 -21 -30 -58 -34 -164 -16 -88 14 -95 14 -107 -1 -15 -21 -34 -125 -34 -187 0 -24 -5 -73 -10 -109 -11 -79 -16 -129 -30 -290 -6 -69 -13 -132 -15 -140 -2 -8 -6 -58 -10 -110 -3 -52 -8 -106 -10 -120 -2 -14 -7 -59 -10 -100 -3 -41 -8 -95 -10 -120 -3 -25 -7 -65 -9 -90 -3 -25 -10 -92 -16 -150 -6 -58 -13 -127 -15 -153 -6 -55 -18 -82 -44 -96 -21 -12 -59 -4 -82 15 -18 16 -29 9 -29 -17 0 -22 -5 -20 220 -64 102 -19 193 -37 203 -39 9 -2 23 1 30 8 8 8 26 154 52 414 26 265 43 399 50 395 5 -4 0 5 -12 19 -28 30 -29 64 -4 78 40 21 54 5 185 -212 85 -143 99 -173 91 -199 -9 -28 -37 -28 -69 0 l-29 26 23 -40 c13 -22 26 -43 30 -47 7 -10 53 -18 335 -63 180 -29 222 -33 232 -22 11 11 -20 62 -173 286 -163 238 -185 275 -176 295 5 12 118 196 251 409 132 214 241 395 241 402 0 8 -15 17 -37 20 -21 4 -50 9 -65 11 -39 8 -35 -10 5 -21 28 -9 32 -15 35 -46 3 -31 -2 -40 -27 -58 -44 -32 -77 -34 -195 -16 -104 16 -109 16 -133 -1 -13 -11 -32 -32 -41 -49 -9 -16 -19 -32 -22 -35 -12 -11 -140 -229 -140 -238 0 -6 -4 -12 -8 -14 -5 -1 -23 -29 -41 -60 -33 -59 -72 -98 -99 -98 -8 0 -30 9 -48 21 -39 23 -87 116 -82 157 3 25 6 27 42 24 l39 -3 -30 40 -29 40 23 232 c13 128 20 236 16 240 -4 3 -30 9 -58 13 -42 5 -47 4 -31 -7z m410 -1033 c16 -6 265 -358 286 -406 16 -34 7 -58 -22 -58 -39 1 -35 -3 -250 309 -58 84 -70 125 -46 149 14 14 12 14 32 6z"></path>
            <path d="M3470 2305 c-21 -25 -6 -28 57 -12 44 12 51 16 28 16 -16 1 -39 4 -51 7 -12 3 -26 -1 -34 -11z"></path>
            <path d="M3834 2261 c4 -6 13 -11 21 -11 8 0 25 -5 39 -11 28 -13 29 -41 6 -92 -18 -37 -45 -42 -164 -30 -59 6 -108 7 -118 2 -18 -10 -28 -33 -33 -82 -29 -281 -49 -481 -70 -712 -30 -330 -39 -381 -67 -396 -25 -14 -84 -3 -92 16 -3 8 -10 15 -16 15 -14 0 -13 -46 3 -57 11 -9 397 -64 444 -63 29 0 27 -9 58 315 14 149 43 452 65 675 30 312 36 408 27 417 -17 16 -112 30 -103 14z"></path>
            <path d="M4770 2184 c0 -2 16 -11 36 -19 35 -14 36 -17 31 -53 -4 -23 -16 -45 -34 -60 -26 -21 -34 -22 -104 -17 -138 12 -259 -31 -334 -118 -46 -54 -46 -54 -72 -107 -31 -65 -42 -130 -63 -370 -32 -355 -35 -379 -60 -405 -15 -16 -39 -26 -69 -30 -50 -6 -76 -17 -76 -31 -2 -35 -19 -92 -32 -106 -23 -25 -81 -23 -110 4 l-23 21 0 -31 c0 -35 5 -37 97 -47 51 -6 62 -10 68 -28 6 -20 7 -19 16 11 10 35 30 40 73 21 44 -21 51 -56 38 -206 -14 -167 -23 -188 -77 -188 -22 0 -50 4 -62 8 -19 7 -23 5 -23 -11 0 -25 2 -26 248 -53 131 -15 206 -19 212 -13 5 5 19 95 30 198 11 104 21 191 23 193 2 2 46 -1 98 -7 51 -5 97 -6 102 -1 11 11 47 354 39 362 -12 11 -143 19 -137 9 3 -6 15 -10 26 -10 38 0 79 -29 79 -56 0 -32 -25 -80 -45 -88 -52 -20 -154 5 -174 42 -19 35 -13 77 14 104 31 32 39 73 66 337 11 118 26 231 32 250 17 50 46 62 138 55 49 -4 78 -3 83 4 9 15 49 422 42 430 -7 6 -96 13 -96 6z"></path>
            <path d="M5704 2111 c4 -6 13 -11 20 -11 13 0 56 -41 56 -54 0 -4 -9 -27 -20 -52 -22 -48 -13 -45 -150 -49 -88 -2 -133 -10 -163 -29 -12 -8 -33 -17 -47 -21 -35 -10 -115 -96 -145 -155 -35 -69 -52 -144 -65 -285 -31 -347 -41 -443 -51 -478 -11 -42 -44 -68 -92 -73 -58 -7 -65 -13 -81 -68 -9 -29 -24 -60 -34 -69 -23 -21 -81 -22 -110 -1 -21 14 -22 14 -22 -10 0 -27 6 -29 122 -41 46 -4 59 -2 66 11 13 23 66 9 93 -24 19 -25 20 -35 14 -132 -12 -210 -23 -235 -96 -235 -24 1 -51 3 -59 5 -10 3 -15 -2 -15 -15 0 -19 13 -21 228 -39 130 -10 232 -15 237 -10 5 5 16 77 24 159 9 83 19 170 22 194 l6 43 98 -6 c69 -5 100 -4 105 4 4 6 15 89 25 183 20 186 19 187 -33 187 l-28 0 20 -26 c24 -31 25 -42 10 -95 -14 -47 -60 -68 -109 -50 -17 5 -30 7 -30 4 0 -3 -6 0 -13 6 -8 6 -16 8 -19 5 -12 -11 -48 50 -48 80 0 57 18 69 101 69 l74 -1 -57 11 c-32 5 -58 15 -58 21 0 48 53 518 61 543 16 51 42 63 136 63 45 0 84 4 88 10 7 11 48 420 43 425 -2 2 -28 7 -57 11 -40 5 -52 4 -47 -5z"></path>
            <path d="M8370 2085 c-95 -16 -179 -46 -247 -87 -60 -37 -140 -114 -129 -125 4 -4 31 18 60 49 59 62 81 75 171 106 120 41 198 52 365 52 105 0 159 3 155 10 -9 14 -284 11 -375 -5z"></path>
            <path d="M5902 2067 c-8 -9 -9 -18 -3 -21 5 -4 13 -1 17 5 5 8 55 9 178 4 286 -11 273 -7 260 -81 -14 -76 -41 -90 -171 -86 -154 4 -140 28 -173 -303 -11 -115 -29 -298 -40 -405 -11 -107 -29 -296 -40 -420 -41 -439 -49 -509 -64 -538 -30 -58 -100 -57 -133 2 -9 17 -11 15 -15 -13 -9 -59 -4 -60 240 -72 187 -9 226 -9 237 2 9 10 37 260 89 814 42 440 83 862 91 938 7 76 12 144 9 152 -6 13 -70 20 -324 31 -124 6 -147 4 -158 -9z"></path>
            <path d="M8880 2039 c14 -11 41 -30 60 -42 70 -45 103 -129 58 -146 -17 -6 -32 -2 -58 16 -145 99 -515 92 -703 -13 -58 -32 -135 -116 -165 -180 -34 -72 -38 -79 -48 -78 -5 0 -15 -6 -22 -13 -17 -17 -69 -17 -102 0 -18 9 -25 21 -25 40 1 15 -2 23 -6 19 -13 -13 -29 -86 -21 -94 5 -5 111 -7 237 -6 190 3 229 5 236 18 4 8 19 41 33 72 31 71 69 98 141 98 65 0 97 -17 112 -60 l11 -35 12 30 c15 40 29 46 62 29 36 -19 58 -63 61 -122 2 -38 -4 -55 -28 -88 -38 -53 -87 -80 -265 -144 -271 -98 -388 -180 -452 -320 -21 -44 -40 -152 -34 -182 19 -83 12 -128 -19 -128 -29 0 -66 24 -71 46 -3 13 -12 29 -20 35 -13 10 -13 8 -4 -17 64 -167 243 -252 510 -241 204 9 357 62 473 166 82 74 152 198 172 304 l7 37 -225 0 c-192 0 -228 -2 -241 -16 -18 -17 -21 -44 -6 -44 6 0 10 4 10 8 0 24 60 32 226 32 195 0 196 0 175 -68 -18 -60 -50 -76 -167 -82 l-102 -5 -51 -48 c-28 -27 -68 -55 -88 -63 -37 -16 -137 -20 -176 -8 -62 19 -114 85 -103 130 7 27 30 31 70 13 25 -12 116 -4 116 9 0 4 -20 6 -45 4 -77 -7 -124 42 -91 93 22 33 46 44 221 105 345 118 486 226 540 412 22 74 26 241 7 303 -29 99 -125 207 -207 235 l-30 10 25 -21z"></path>
            <path d="M7449 2016 c7 -8 38 -27 69 -42 64 -31 152 -117 152 -149 0 -11 -5 -27 -10 -35 -8 -13 -22 -9 -88 27 -107 58 -149 71 -258 84 -297 33 -541 -91 -668 -339 -24 -47 -53 -161 -71 -283 -19 -124 -14 -210 22 -357 27 -114 25 -137 -9 -127 -22 8 -68 52 -68 66 0 5 -4 9 -10 9 -5 0 3 -24 18 -52 35 -70 142 -175 217 -214 116 -61 155 -69 325 -69 142 1 161 3 222 27 210 80 352 237 431 476 35 104 67 278 67 361 l0 41 -142 0 c-79 0 -154 3 -167 7 -17 4 -22 3 -17 -5 5 -8 44 -12 115 -12 146 0 168 -5 176 -40 3 -16 0 -43 -8 -62 -12 -29 -22 -37 -58 -45 -47 -12 -350 -9 -591 5 -164 10 -191 22 -196 89 -4 54 13 66 107 74 l76 7 -72 -2 c-72 -1 -72 -1 -67 24 3 14 18 49 32 79 34 69 88 101 170 101 69 0 116 -22 136 -64 l16 -33 232 -7 c128 -4 241 -4 252 0 15 6 17 14 12 50 -16 121 -74 233 -162 314 -64 58 -221 140 -185 96z m-119 -883 c18 -23 21 -37 17 -78 -12 -119 -78 -224 -164 -265 -39 -18 -60 -21 -124 -18 -67 3 -83 7 -120 33 -53 37 -83 86 -75 120 5 18 13 25 30 25 33 0 37 9 16 39 -11 14 -24 46 -29 71 -20 86 -31 80 154 80 140 0 165 -2 165 -15 0 -8 5 -15 10 -15 6 0 10 7 10 15 0 17 32 33 67 34 12 1 31 -11 43 -26z"></path>
            <path d="M1414 1292 c-14 -9 -26 -42 -15 -42 5 0 14 7 21 15 7 8 24 15 38 15 30 0 27 5 -8 13 -14 3 -30 3 -36 -1z"></path>
            <path d="M4843 1093 c-7 -3 -13 -14 -13 -25 0 -20 1 -20 18 -5 14 12 37 17 87 17 38 0 66 2 64 4 -7 6 -143 14 -156 9z"></path>
            <path d="M3422 560 c-29 -27 -28 -47 3 -52 16 -3 30 1 42 14 20 23 61 20 77 -5 14 -23 -1 -33 -66 -41 -83 -11 -114 -68 -63 -116 21 -20 37 -24 86 -25 52 0 64 3 80 24 27 33 24 41 -16 41 -19 0 -35 -4 -35 -10 0 -5 -16 -10 -35 -10 -28 0 -35 4 -35 20 0 14 9 21 38 25 79 13 91 17 103 31 22 27 15 75 -15 101 -37 31 -131 33 -164 3z"></path>
            <path d="M3233 427 c3 -30 13 -72 23 -93 26 -54 97 -118 155 -138 62 -23 158 -18 209 10 l35 19 -95 6 c-107 6 -158 24 -208 72 -42 40 -90 110 -98 142 -13 52 -27 39 -21 -18z"></path>
        </g>
    </g>
</svg>