<svg version="1.1" id="Layer_1" xmlns="http://www.w3.org/2000/svg" xmlns:xlink="http://www.w3.org/1999/xlink"
	viewBox="0 0 600 600" xml:space="preserve">
	<path fill="currentColor" opacity="1.000000" stroke="none"
		d="
M146.000000,49.000000 
	C182.163727,49.000000 217.828613,49.137501 253.489822,48.838398 
	C258.336517,48.797752 260.727844,50.738251 262.769806,54.379047 
	C268.709290,64.969254 274.653229,75.557098 280.639404,86.120941 
	C282.688721,89.737358 285.095276,93.167511 286.935455,96.882454 
	C289.740662,102.545601 294.580261,105.497971 300.377747,105.542419 
	C306.596710,105.590103 311.735321,102.974075 315.142334,96.796181 
	C323.405762,81.812241 332.197968,67.115311 341.039978,52.461338 
	C342.048187,50.790462 344.727478,49.146759 346.636017,49.142040 
	C415.129944,48.972630 483.625671,48.777637 552.117676,49.178192 
	C566.695312,49.263451 580.974731,58.235104 586.297302,75.464394 
	C590.074890,87.692642 587.398193,98.439255 581.522827,108.957726 
	C574.703308,121.166435 567.875061,133.373642 560.813232,145.442627 
	C554.664001,155.951950 548.096436,166.215759 541.882568,176.688248 
	C537.888489,183.419632 534.291809,190.385773 530.353455,197.151520 
	C524.163635,207.785110 517.770813,218.300568 511.590332,228.939484 
	C507.655212,235.713257 503.974030,242.634064 500.132660,249.462891 
	C495.824615,257.121368 491.596130,264.831207 487.007721,272.319397 
	C486.161957,273.699646 483.775604,274.866882 482.086243,274.885986 
	C465.423096,275.074615 448.754883,275.148651 432.092743,274.920532 
	C426.142456,274.839142 421.931244,277.051758 418.976929,282.045898 
	C416.083008,286.938019 419.215332,290.887695 421.367065,294.658478 
	C426.771667,304.129578 432.583160,313.369019 438.259796,322.684113 
	C441.033386,327.235352 444.137085,331.613708 446.525146,336.355469 
	C447.300751,337.895508 446.892792,340.682007 445.982422,342.317413 
	C438.902466,355.036133 431.624512,367.646088 424.295380,380.224182 
	C416.713837,393.235474 408.957428,406.144928 401.367310,419.151276 
	C394.031525,431.721741 386.857849,444.386780 379.526306,456.959717 
	C370.563477,472.330200 361.483124,487.632080 352.505920,502.994202 
	C346.612640,513.078918 340.965302,523.310364 334.930267,533.308533 
	C327.676636,545.325562 317.428436,552.532043 302.860657,553.062256 
	C285.820465,553.682617 274.230530,545.782654 265.974426,531.404419 
	C255.580658,513.303284 244.616867,495.529999 234.175476,477.455566 
	C226.190491,463.633301 218.778656,449.480621 210.845581,435.627411 
	C203.657013,423.074341 196.081665,410.743286 188.725983,398.285309 
	C181.461212,385.981323 174.257355,373.641418 167.028122,361.316467 
	C163.789429,355.794922 160.672043,350.197479 157.275803,344.774689 
	C154.985092,341.117157 155.071167,337.756317 157.326538,334.190521 
	C166.462631,319.746155 175.562286,305.278625 184.643738,290.799774 
	C186.188232,288.337341 183.602325,279.756134 180.361786,278.211182 
	C177.100693,276.656464 173.410477,275.201324 169.883362,275.140167 
	C152.225998,274.834076 134.560440,275.000000 116.881302,275.000000 
	C110.756401,264.329681 104.689201,253.686890 98.551865,243.084671 
	C88.841225,226.309570 79.074615,209.566879 69.348824,192.800537 
	C62.035103,180.192398 54.731747,167.578186 47.454803,154.948807 
	C41.938828,145.375656 36.496277,135.760178 30.975262,126.189957 
	C26.469629,118.379814 21.633503,110.747955 17.416086,102.786911 
	C11.481559,91.584549 12.149649,79.084122 17.593119,68.956078 
	C24.183678,56.693790 36.034428,49.083889 51.009148,49.032707 
	C82.505768,48.925049 114.003014,49.000000 146.000000,49.000000 
z" />
</svg>